<svg id="graphics" xmlns="http://www.w3.org/2000/svg" xmlns:xlink="http://www.w3.org/1999/xlink" viewBox="0 0 841.89 566.93"><defs><style>.cls-1{fill:#c6c6c6;}.cls-2{fill:url(#linear-gradient);}.cls-3{fill:url(#linear-gradient-2);}.cls-4{fill:url(#linear-gradient-3);}.cls-5{fill:url(#linear-gradient-4);}.cls-6{fill:url(#linear-gradient-5);}.cls-7{fill:#7d8789;}.cls-8{fill:url(#radial-gradient);}.cls-9{fill:url(#linear-gradient-6);}</style><linearGradient id="linear-gradient" x1="369.3" y1="374.37" x2="625.3" y2="451.04" gradientUnits="userSpaceOnUse"><stop offset="0.22" stop-color="#10d6f9"/><stop offset="0.43" stop-color="#10d6f9"/><stop offset="0.49" stop-color="#11d0f4"/><stop offset="0.58" stop-color="#13bee8"/><stop offset="0.68" stop-color="#17a2d2"/><stop offset="0.79" stop-color="#1d7bb6"/><stop offset="1" stop-color="#0d3375"/></linearGradient><linearGradient id="linear-gradient-2" x1="372.87" y1="362.43" x2="628.87" y2="439.09" xlink:href="#linear-gradient"/><linearGradient id="linear-gradient-3" x1="373.16" y1="361.47" x2="629.16" y2="438.13" xlink:href="#linear-gradient"/><linearGradient id="linear-gradient-4" x1="374.51" y1="356.98" x2="630.51" y2="433.65" xlink:href="#linear-gradient"/><linearGradient id="linear-gradient-5" x1="379.41" y1="340.58" x2="635.42" y2="417.25" xlink:href="#linear-gradient"/><radialGradient id="radial-gradient" cx="446.54" cy="263.21" r="129.44" gradientTransform="matrix(1, -0.02, 0.02, 1, -5.88, 7.93)" gradientUnits="userSpaceOnUse"><stop offset="0" stop-color="#8d8d8d"/><stop offset="0.15" stop-color="#a7a7a7"/><stop offset="0.39" stop-color="#c7c7c7"/><stop offset="0.61" stop-color="#dfdfdf"/><stop offset="0.82" stop-color="#ededed"/><stop offset="1" stop-color="#f2f2f2"/></radialGradient><linearGradient id="linear-gradient-6" x1="275.62" y1="232.75" x2="511.21" y2="315.6" gradientTransform="matrix(1, -0.02, 0.02, 1, -5.88, 7.93)" xlink:href="#linear-gradient"/></defs><path class="cls-1" d="M289.88,365.72v10.93a11.48,11.48,0,0,1,4.37-4.23,12.22,12.22,0,0,1,6-1.37,12.73,12.73,0,0,1,10.53,5.33q4.09,5.33,4.1,13.81t-4.1,13.8a11.45,11.45,0,0,1-5.54,3.76,21.81,21.81,0,0,1-6.9,1.16,23,23,0,0,1-12.17-3.41q-5.6-3.42-5.6-13.13v-31.3h4.65a4.68,4.68,0,0,1,4.65,4.65Zm15.58,24.06c0-3.29-.69-5.84-2-7.66a6.54,6.54,0,0,0-5.61-2.87,6.89,6.89,0,0,0-5.87,2.73,13.17,13.17,0,0,0-2.05,7.8c0,3.82.63,6.6,1.91,8.33a6.64,6.64,0,0,0,5.74,2.87,6.78,6.78,0,0,0,5.88-2.87C304.77,396.2,305.46,393.42,305.46,389.78Z"/><path class="cls-1" d="M318.75,361.21h4.92a4.66,4.66,0,0,1,4.65,4.64v2.87h-9.57Zm0,10.66h4.92a4.68,4.68,0,0,1,4.65,4.65v31.71h-9.57Z"/><path class="cls-1" d="M333.13,408.23V390.6a22.5,22.5,0,0,1,1.57-9,14.84,14.84,0,0,1,4.31-5.81,16.82,16.82,0,0,1,6.08-3,26.84,26.84,0,0,1,7.17-1h1.37v9.7h-3.14q-4,0-5.88,1.92c-1.28,1.27-1.91,3.28-1.91,6v18.73Z"/><path class="cls-1" d="M380.05,361.07h4.64A4.38,4.38,0,0,1,388,362.5a4.57,4.57,0,0,1,1.37,3.22v26.65q0,9.7-5.6,13.13a23,23,0,0,1-12.17,3.41,21.64,21.64,0,0,1-7-1.16,11.48,11.48,0,0,1-5.47-3.76q-4-5.06-4-13.8t4-13.81a13.32,13.32,0,0,1,16.54-4,13,13,0,0,1,4.38,4.23Zm-15.59,28.71c0,3.64.69,6.42,2.05,8.33a6.78,6.78,0,0,0,5.88,2.87,6.63,6.63,0,0,0,5.74-2.87q1.92-2.87,1.92-8.33A13.24,13.24,0,0,0,378,382a7.15,7.15,0,0,0-5.88-2.73,6.54,6.54,0,0,0-5.61,2.87C365.15,383.94,364.46,386.49,364.46,389.78Z"/><path class="cls-2" d="M431.82,408.23h-9.57l-5.6-26-5.6,26h-9.57l-10-36.36h9.29L406.54,397l5.19-25.15h9.7L426.36,397l5.05-21.87a4,4,0,0,1,4.38-3.28h6Z"/><path class="cls-3" d="M444.48,361.21h4.92a4.66,4.66,0,0,1,4.65,4.64v2.87h-9.57Zm0,10.66h4.92a4.68,4.68,0,0,1,4.65,4.65v31.71h-9.57Z"/><path class="cls-4" d="M489.57,408.23h-4.78a4.45,4.45,0,0,1-4.65-4.65V385a5.61,5.61,0,0,0-2-4.78,7.18,7.18,0,0,0-4.44-1.51,6.93,6.93,0,0,0-4.38,1.51,5.71,5.71,0,0,0-1.91,4.78v23.24h-9.57V386.9q0-9.28,4.85-12.43a21.15,21.15,0,0,1,10.73-3.42,20.66,20.66,0,0,1,11.08,3.14q5.06,3.15,5.05,12.71Z"/><path class="cls-5" d="M517.53,406v-2.32a10.43,10.43,0,0,1-6.62,4.78,13.6,13.6,0,0,1-8.27-.68,15.32,15.32,0,0,1-7-6.08q-2.94-4.44-2.94-11.69,0-8.48,3.89-13.74t12.51-5.26a22.31,22.31,0,0,1,12.17,3.55q5.6,3.56,5.6,13.12V407q0,9.57-5.6,13.05a22.59,22.59,0,0,1-12.17,3.49q-12.58,0-15.58-11.76h10a7.61,7.61,0,0,0,7.86,3.49,7.42,7.42,0,0,0,4.1-2.67C516.65,411.14,517.35,409,517.53,406ZM502,390.32q0,9.44,5.47,10.46t8.07-2.53a10.23,10.23,0,0,0,1.77-4.72,19.91,19.91,0,0,0,.07-6.35,12.74,12.74,0,0,0-2.25-5.61,6,6,0,0,0-5.2-2.46c-3.1,0-5.19,1.14-6.29,3.42A17.86,17.86,0,0,0,502,390.32Z"/><path class="cls-6" d="M529.05,396.2h9.29a5,5,0,0,0,2.06,4.1,9.68,9.68,0,0,0,5.46,1.37,8.79,8.79,0,0,0,4.24-1,2.91,2.91,0,0,0,1.64-2.6q0-2.46-5.74-3.69a24.78,24.78,0,0,1-3.69-.82q-7.24-1.77-9.71-4.23a8.42,8.42,0,0,1-2.73-6.57,10.9,10.9,0,0,1,4-8.61q4.11-3.13,10.67-3.14,7.1,0,11.34,3.14a12,12,0,0,1,4.24,8.89H554.2a4.34,4.34,0,0,1-4-2.33l-1.1-1.09a7.34,7.34,0,0,0-4.51-1.23,8.1,8.1,0,0,0-4.1.82,2.77,2.77,0,0,0-1.23,2.46q0,2.19,7.11,3.69c.55.18,1,.32,1.43.41A5.48,5.48,0,0,0,549,386q7,1.77,9.7,4.1a8.62,8.62,0,0,1,2.6,6.56,10.91,10.91,0,0,1-4.38,9.29q-4.09,3-12.3,3-7.78,0-11.62-3.14t-4-9.16Z"/><path class="cls-7" d="M341.48,428.58a3.44,3.44,0,0,0-2.45-.83,4,4,0,0,0-2,.48,4.24,4.24,0,0,0-1.41,1.25,5.53,5.53,0,0,0-.85,1.76,7.15,7.15,0,0,0,0,4,5.53,5.53,0,0,0,.85,1.76,4.24,4.24,0,0,0,1.41,1.25,4,4,0,0,0,2,.47,3.52,3.52,0,0,0,1.37-.27,3.72,3.72,0,0,0,1.15-.76,4.23,4.23,0,0,0,1.23-2.64h1.57a6,6,0,0,1-1.72,3.66,5.05,5.05,0,0,1-3.6,1.31,6,6,0,0,1-2.62-.53,5.56,5.56,0,0,1-1.91-1.47,6.09,6.09,0,0,1-1.17-2.16,8.88,8.88,0,0,1,0-5.27,6.09,6.09,0,0,1,1.17-2.16,5.71,5.71,0,0,1,1.91-1.48,5.9,5.9,0,0,1,2.62-.55,5.63,5.63,0,0,1,3.51,1.1,4.67,4.67,0,0,1,1.71,3.33h-1.57A4.39,4.39,0,0,0,341.48,428.58Z"/><path class="cls-7" d="M348,426.8v3h.05a4.74,4.74,0,0,1,4.88-3.2v1.58a4.71,4.71,0,0,0-1.95.28,4.45,4.45,0,0,0-1.52,1,4.3,4.3,0,0,0-1,1.48,4.89,4.89,0,0,0-.35,1.89v6.88h-1.58V426.8Z"/><path class="cls-7" d="M355.14,435.44a4.84,4.84,0,0,0,.76,1.64,4.39,4.39,0,0,0,1.33,1.2,3.65,3.65,0,0,0,1.92.47,3.83,3.83,0,0,0,2.7-.89,4.78,4.78,0,0,0,1.35-2.4h1.58a6.41,6.41,0,0,1-1.84,3.4,5.49,5.49,0,0,1-3.79,1.19,6,6,0,0,1-2.64-.53A4.87,4.87,0,0,1,354.7,438a6.43,6.43,0,0,1-1-2.17,10.17,10.17,0,0,1-.33-2.62,9.64,9.64,0,0,1,.33-2.5,6.76,6.76,0,0,1,1-2.18,5.25,5.25,0,0,1,1.81-1.55,5.59,5.59,0,0,1,2.64-.59,5.35,5.35,0,0,1,2.65.62,5.43,5.43,0,0,1,1.79,1.64,6.78,6.78,0,0,1,1,2.33,10.31,10.31,0,0,1,.25,2.66H354.9A6.89,6.89,0,0,0,355.14,435.44Zm7.8-4.81a4.61,4.61,0,0,0-.81-1.46,4,4,0,0,0-1.28-1,3.94,3.94,0,0,0-3.42,0,4,4,0,0,0-1.28,1,5,5,0,0,0-.84,1.47,7.31,7.31,0,0,0-.41,1.72h8.35A5.82,5.82,0,0,0,362.94,430.63Z"/><path class="cls-7" d="M367.28,428.8a3.49,3.49,0,0,1,1.08-1.34,4.69,4.69,0,0,1,1.62-.78,7.68,7.68,0,0,1,2-.25,9,9,0,0,1,1.7.16,4.17,4.17,0,0,1,1.52.62,3.24,3.24,0,0,1,1.1,1.26,4.57,4.57,0,0,1,.43,2.11v6.85c0,.63.3.95.92.95a1.18,1.18,0,0,0,.5-.1v1.33l-.49.07a3.89,3.89,0,0,1-.53,0,2.38,2.38,0,0,1-1-.17,1.28,1.28,0,0,1-.56-.46,1.77,1.77,0,0,1-.26-.71,6.42,6.42,0,0,1-.06-.91h-.05a13.43,13.43,0,0,1-.87,1.11,4.4,4.4,0,0,1-1,.81,4.53,4.53,0,0,1-1.23.5,7.36,7.36,0,0,1-3.32,0,3.7,3.7,0,0,1-1.38-.67,3.17,3.17,0,0,1-.92-1.18,3.8,3.8,0,0,1-.34-1.69,3.35,3.35,0,0,1,.6-2.11,3.78,3.78,0,0,1,1.59-1.16,9,9,0,0,1,2.22-.56c.83-.11,1.67-.22,2.52-.31.33,0,.62-.08.87-.13a1.64,1.64,0,0,0,.63-.26,1.28,1.28,0,0,0,.38-.52,2.19,2.19,0,0,0,.14-.84,3,3,0,0,0-.26-1.32,2.12,2.12,0,0,0-.73-.81,2.81,2.81,0,0,0-1.07-.41,6.86,6.86,0,0,0-1.31-.12,3.94,3.94,0,0,0-2.45.72,2.75,2.75,0,0,0-1,2.28H366.8A5.23,5.23,0,0,1,367.28,428.8Zm7.87,3.86a.89.89,0,0,1-.57.39,5,5,0,0,1-.75.18c-.67.12-1.36.22-2.07.31a10.38,10.38,0,0,0-1.93.42,3.68,3.68,0,0,0-1.44.78,1.86,1.86,0,0,0-.56,1.47,2.27,2.27,0,0,0,.23,1.06,2.6,2.6,0,0,0,.64.8,3,3,0,0,0,.93.51,3.24,3.24,0,0,0,1.07.17,5.54,5.54,0,0,0,1.73-.27,4.17,4.17,0,0,0,1.43-.8,3.83,3.83,0,0,0,1-1.27,3.89,3.89,0,0,0,.36-1.7v-2Z"/><path class="cls-7" d="M385.05,426.8v1.33h-2.62v8.7a2.83,2.83,0,0,0,.21,1.21c.14.29.49.46,1.06.49s.9,0,1.35-.07v1.32l-.7,0c-.23,0-.47,0-.7,0a3.11,3.11,0,0,1-2.2-.61,3.07,3.07,0,0,1-.6-2.26v-8.83H378.6V426.8h2.25v-3.87h1.58v3.87Z"/><path class="cls-7" d="M388.93,421.86v2.52h-1.58v-2.52Zm0,4.94v12.91h-1.58V426.8Z"/><path class="cls-7" d="M392.25,426.8l4.05,11.33h.05l4-11.33H402l-4.83,12.91h-1.67l-5-12.91Z"/><path class="cls-7" d="M404.69,435.44a4.84,4.84,0,0,0,.76,1.64,4.47,4.47,0,0,0,1.32,1.2,3.71,3.71,0,0,0,1.93.47,3.83,3.83,0,0,0,2.7-.89,4.78,4.78,0,0,0,1.35-2.4h1.57a6.33,6.33,0,0,1-1.83,3.4,5.49,5.49,0,0,1-3.79,1.19,6,6,0,0,1-2.64-.53,4.87,4.87,0,0,1-1.81-1.48,6.43,6.43,0,0,1-1-2.17,10.17,10.17,0,0,1-.33-2.62,9.64,9.64,0,0,1,.33-2.5,6.76,6.76,0,0,1,1-2.18,5.25,5.25,0,0,1,1.81-1.55,5.59,5.59,0,0,1,2.64-.59,5.35,5.35,0,0,1,2.65.62,5.43,5.43,0,0,1,1.79,1.64,6.58,6.58,0,0,1,1,2.33,9.89,9.89,0,0,1,.25,2.66h-9.92A6.89,6.89,0,0,0,404.69,435.44Zm7.8-4.81a4.64,4.64,0,0,0-.82-1.46,4,4,0,0,0-1.27-1,3.94,3.94,0,0,0-3.42,0,4,4,0,0,0-1.28,1,5,5,0,0,0-.84,1.47,7.31,7.31,0,0,0-.41,1.72h8.35A5.82,5.82,0,0,0,412.49,430.63Z"/><path class="cls-7" d="M433.35,439.71v-2.46h-.05a3.81,3.81,0,0,1-.74,1.16,4.79,4.79,0,0,1-1.11.88,6.14,6.14,0,0,1-1.34.57,5.26,5.26,0,0,1-1.41.19,5.68,5.68,0,0,1-2.56-.53,5.15,5.15,0,0,1-1.82-1.48,6.3,6.3,0,0,1-1.07-2.17,9.94,9.94,0,0,1,0-5.23,6.3,6.3,0,0,1,1.07-2.17,5.29,5.29,0,0,1,1.82-1.49,6,6,0,0,1,4-.37,4.52,4.52,0,0,1,2.35,1.42,3.62,3.62,0,0,1,.71,1.22h.05v-7.39h1.58v17.85Zm-8.64-4.47a5.48,5.48,0,0,0,.75,1.76,4.11,4.11,0,0,0,1.32,1.27,3.65,3.65,0,0,0,1.92.48,4.27,4.27,0,0,0,2.11-.48,4.18,4.18,0,0,0,1.4-1.27,5.11,5.11,0,0,0,.78-1.76,8.68,8.68,0,0,0,0-4,5.25,5.25,0,0,0-.78-1.77,4.06,4.06,0,0,0-3.51-1.75,3.65,3.65,0,0,0-1.92.49,4.19,4.19,0,0,0-1.32,1.26,5.63,5.63,0,0,0-.75,1.77,8.33,8.33,0,0,0,0,4Z"/><path class="cls-7" d="M439,435.44a5,5,0,0,0,.76,1.64,4.51,4.51,0,0,0,1.33,1.2,3.65,3.65,0,0,0,1.92.47,3.83,3.83,0,0,0,2.7-.89,4.78,4.78,0,0,0,1.35-2.4h1.58a6.34,6.34,0,0,1-1.84,3.4,5.47,5.47,0,0,1-3.79,1.19,6,6,0,0,1-2.63-.53,4.9,4.9,0,0,1-1.82-1.48,6.41,6.41,0,0,1-1-2.17,9.75,9.75,0,0,1-.34-2.62,9.24,9.24,0,0,1,.34-2.5,6.74,6.74,0,0,1,1-2.18,5.28,5.28,0,0,1,1.82-1.55,5.58,5.58,0,0,1,2.63-.59,5.09,5.09,0,0,1,4.44,2.26,6.78,6.78,0,0,1,1,2.33,10.31,10.31,0,0,1,.25,2.66h-9.93A6.89,6.89,0,0,0,439,435.44Zm7.8-4.81a4.61,4.61,0,0,0-.81-1.46,4,4,0,0,0-1.28-1,3.61,3.61,0,0,0-1.7-.39,3.66,3.66,0,0,0-1.72.39,4,4,0,0,0-1.28,1,5,5,0,0,0-.83,1.47,7.33,7.33,0,0,0-.42,1.72h8.35A5.52,5.52,0,0,0,446.76,430.63Z"/><path class="cls-7" d="M458.2,429.32a2.47,2.47,0,0,0-.74-.89,3.16,3.16,0,0,0-1.06-.51,4.83,4.83,0,0,0-1.28-.17,4.92,4.92,0,0,0-1.06.12,3.37,3.37,0,0,0-1,.37,2.26,2.26,0,0,0-.72.69,1.91,1.91,0,0,0-.28,1.05,1.45,1.45,0,0,0,.27.89,2.28,2.28,0,0,0,.66.61,4.17,4.17,0,0,0,.88.41q.47.17.87.27l2.1.47a6.49,6.49,0,0,1,1.34.36,4.52,4.52,0,0,1,1.17.69,3.36,3.36,0,0,1,.84,1.05,3.14,3.14,0,0,1,.33,1.48,3.18,3.18,0,0,1-.48,1.78,4,4,0,0,1-1.21,1.2,5.31,5.31,0,0,1-1.66.67,8.89,8.89,0,0,1-1.83.19,5.9,5.9,0,0,1-3.69-1.07,4.58,4.58,0,0,1-1.61-3.45h1.57a3.11,3.11,0,0,0,1.17,2.41,4.23,4.23,0,0,0,2.64.81,6.14,6.14,0,0,0,1.18-.12,3.71,3.71,0,0,0,1.14-.42,2.78,2.78,0,0,0,.86-.77,1.86,1.86,0,0,0,.34-1.14,1.8,1.8,0,0,0-.24-1,2.09,2.09,0,0,0-.64-.65,4.27,4.27,0,0,0-.91-.44c-.34-.11-.69-.21-1-.29l-2-.46a9.86,9.86,0,0,1-1.42-.46,4.19,4.19,0,0,1-1.14-.65,2.6,2.6,0,0,1-.76-.95,3,3,0,0,1-.28-1.39,3.13,3.13,0,0,1,.44-1.67,3.49,3.49,0,0,1,1.13-1.13,5.31,5.31,0,0,1,1.57-.62,7.68,7.68,0,0,1,1.71-.2,6.19,6.19,0,0,1,1.81.25,4.28,4.28,0,0,1,1.48.78,3.79,3.79,0,0,1,1,1.29,4.65,4.65,0,0,1,.42,1.83H458.5A3.08,3.08,0,0,0,458.2,429.32Z"/><path class="cls-7" d="M464.4,421.86v2.52h-1.58v-2.52Zm0,4.94v12.91h-1.58V426.8Z"/><path class="cls-7" d="M478,441.23a5,5,0,0,1-1,1.95,4.37,4.37,0,0,1-1.76,1.23,7.39,7.39,0,0,1-2.66.42,8.58,8.58,0,0,1-1.9-.22,5.5,5.5,0,0,1-1.66-.7,4.21,4.21,0,0,1-1.23-1.22,3.66,3.66,0,0,1-.56-1.76h1.57a2.76,2.76,0,0,0,1.37,2,3.86,3.86,0,0,0,1.13.44,6.11,6.11,0,0,0,1.28.13,3.75,3.75,0,0,0,3.17-1.25,5.73,5.73,0,0,0,1-3.59v-1.75h-.05a4.65,4.65,0,0,1-1.61,1.92,4.34,4.34,0,0,1-2.49.72A6.26,6.26,0,0,1,470,439a4.8,4.8,0,0,1-1.81-1.41,5.72,5.72,0,0,1-1-2.11,9.83,9.83,0,0,1-.33-2.59,8,8,0,0,1,.39-2.51,6.15,6.15,0,0,1,1.13-2.08,5.26,5.26,0,0,1,1.82-1.4,5.83,5.83,0,0,1,2.49-.51,4.61,4.61,0,0,1,1.36.2,4.16,4.16,0,0,1,1.16.56,4.71,4.71,0,0,1,.94.84,3.76,3.76,0,0,1,.64,1h.05V426.8h1.57v11.86A9.73,9.73,0,0,1,478,441.23Zm-3.61-3.44a4,4,0,0,0,1.3-1.15,5.1,5.1,0,0,0,.79-1.64,7.07,7.07,0,0,0,.26-1.89,8.16,8.16,0,0,0-.23-1.9,5.32,5.32,0,0,0-.72-1.73,4,4,0,0,0-1.29-1.25,3.59,3.59,0,0,0-1.91-.48,3.81,3.81,0,0,0-1.93.47,4.13,4.13,0,0,0-1.32,1.21,4.91,4.91,0,0,0-.76,1.71,8.11,8.11,0,0,0-.24,2,7.06,7.06,0,0,0,.25,1.89,4.7,4.7,0,0,0,.78,1.64,3.86,3.86,0,0,0,1.32,1.15,3.92,3.92,0,0,0,1.9.44A3.64,3.64,0,0,0,474.4,437.79Z"/><path class="cls-7" d="M482.88,426.8V429h0a3.82,3.82,0,0,1,1.61-1.89,4.7,4.7,0,0,1,2.52-.71,6.43,6.43,0,0,1,2.26.35,3.54,3.54,0,0,1,1.47,1,3.69,3.69,0,0,1,.77,1.56,8.83,8.83,0,0,1,.23,2.08v8.3H490.2v-8a7.45,7.45,0,0,0-.15-1.54,3.23,3.23,0,0,0-.52-1.24,2.55,2.55,0,0,0-1-.83,3.85,3.85,0,0,0-1.59-.3,4.06,4.06,0,0,0-1.68.34A3.75,3.75,0,0,0,484,429a4.1,4.1,0,0,0-.8,1.4,5.55,5.55,0,0,0-.31,1.76v7.53H481.3V426.8Z"/><path class="cls-8" d="M527.32,198.33c-33.37-23.24-91.9-13.69-117.1,44.36-13.81,31.79-17.75,80.62-77,96.6,16.34-.14,105.92,9.49,137.68-42.45C493,260.68,473.06,200.83,527.32,198.33Z"/><path class="cls-9" d="M276.57,253.94c53.83-77,163.13-83.72,192.76-15,28,64.87-27.39,115.5-136.09,100.33,46.29-2.34,93.41-25.65,78.17-70.78C398.3,229.7,340.8,217.74,276.57,253.94Z"/></svg>