<svg id="Layer_1" data-name="Layer 1" xmlns="http://www.w3.org/2000/svg" viewBox="0 0 500 500"><defs><style>.cls-1{fill:#fefefe;}.cls-2{fill:#2e2720;}.cls-3{fill:#38332d;}.cls-4{fill:#52504a;}.cls-5{fill:#504c46;}.cls-6{fill:#443d34;}.cls-7{fill:#748a82;}.cls-8{fill:#70887f;}.cls-9{fill:#5a7064;}.cls-10{fill:#4d6054;}.cls-11{fill:#d2d6d5;}.cls-12{fill:#f4d6a5;}.cls-13{fill:#51514b;}.cls-14{fill:#d4a366;}.cls-15{fill:#e8c087;}.cls-16{fill:#ebc07f;}.cls-17{fill:#4a3725;}.cls-18{fill:#c29d68;}.cls-19{fill:#322a23;}.cls-20{fill:#eeca95;}.cls-21{fill:#ecc387;}.cls-22{fill:#524230;}.cls-23{fill:#e0b479;}.cls-24{fill:#90aa9f;}.cls-25{fill:#98afa5;}.cls-26{fill:#6a8174;}.cls-27{fill:#809990;}.cls-28{fill:#715e4a;}.cls-29{fill:#f0c587;}.cls-30{fill:#dcc092;}</style></defs><path class="cls-1" d="M25.27,18.45h500v500h-500ZM277.12,406.63c-.34,2.28-.68,4.55-1,6.83l1.19.17,3.39-4.1-2.89-3.59c-5.31-4.88-5.05,2.29-7.87,3.05l4.5,6.19a10.9,10.9,0,0,0-.06-6C273.6,406.31,275.35,406.52,277.12,406.63Zm-106.87-79.3,18-5.41,27.9-8.5c4.38-1.38,8.89-2.48,13.12-4.22,3.32-1.38,5.86-.91,8.79,1,8.51,5.48,17.23,10.63,25.79,16,7.31,4.6,14.62,4.82,22,.36,2.53-1.53,4.94-3.27,7.4-4.91,6.51-3.84,12.92-7.9,19.61-11.41a10.72,10.72,0,0,1,7.32-.77c13.21,4,26.28,8.46,39.44,12.63,6.84,2.17,13.77,4.08,20.65,6.1l.68-1.7c-11-6.46-23.36-9.94-35.3-14.52.5-.81.6-1.17.84-1.35C364.8,297,374.9,279.29,374,255.94c-.06-1.58,1.59-3.82,3.08-4.74,4.55-2.83,9.42-5.17,14.16-7.69l-.49-1.43-17.05,3.77v-5.43c0-18.83-.07-37.66.05-56.49,0-7.33-2.76-12.44-9.81-15.11-4.81-1.82-9.54-3.89-14.25-6q-30.74-13.69-61.44-27.45c-6.5-4.32-13.18-6.72-21-3.15q-40.77,18.64-81.67,37c-6.22,2.81-9.23,7.32-8.42,14.2v62.77l-19.27-4.18a58.56,58.56,0,0,0,14.57,9c3.55,1.48,4.58,3.41,4.43,7.07-.38,10.12,1.45,19.79,7.11,28.45L203.25,312,188,318.24l-18,6.86-5.14,1.8.49,1.51ZM205,368.89l1.15.27a61.07,61.07,0,0,0,.1,7.29c.12,1,1.3,1.81,2,2.71.83-.8,2.36-1.57,2.39-2.4.2-6.25.11-12.52.11-19.11-8.45-.36-6.48,8.41-11.57,11.13-1.51-3-2.87-6.22-4.66-9.12-.61-1-2.3-1.31-3.49-1.94-.54,1.06-1.5,2.1-1.53,3.17-.17,5-.23,10,0,15,.06,1.16,1.55,2.26,2.39,3.38.71-1.07,1.84-2.07,2.05-3.23a35.16,35.16,0,0,0,.09-6l1.06,0c1.54,2,3.08,4.08,4.9,6.51C202,373.54,203.47,371.22,205,368.89Zm31-.58a71.82,71.82,0,0,0,.67,8.35c.19.95,1.51,1.68,2.31,2.51.71-.9,2-1.78,2-2.7.19-6.11.1-12.23.1-18.14-4.19-1.81-5,.94-6.25,3.34s-2.69,4.74-4.49,7.88c-1.94-4-3.34-7.17-5-10.17a3.4,3.4,0,0,0-2.65-1.57,3,3,0,0,0-1.81,2.28q-.13,8.48.23,17c0,.76,1.31,1.47,2,2.2.69-.73,1.85-1.4,2-2.21a61.1,61.1,0,0,0,.09-7.58l5.58,6.92Zm-76.95-.44a11.2,11.2,0,0,0,10.84,11.41,11,11,0,0,0-.08-22C163.48,357.18,159.14,361.44,159.05,367.87Zm153.48,10.26,1,1.06c3.16-1.16,6.31-3.24,9.47-3.25,3.34,0,6.68,1.95,11.55,3.55-3.31-7.74-5.82-14-8.71-20.14-1.18-2.5-3.84-2.8-5.07-.29C317.72,365.28,315.23,371.76,312.53,378.13Zm90.19-20.55c0,6.76-.06,13.19.08,19.62,0,.66,1.21,1.87,1.77,1.82a3.92,3.92,0,0,0,2.55-1.59,10,10,0,0,0,.84-3.14c2.15-.23,4-.39,5.78-.62,5-.66,7.61-3.5,7.56-8.19-.05-4.52-3.06-7.6-7.95-7.86C410.19,357.45,407,357.58,402.72,357.58Zm-31.49,7.68c0,.83,0,1.67,0,2.5.11,7.49,3.53,11.47,9.95,11.6s10.7-4.32,10.89-11.54a41.23,41.23,0,0,0-.13-7.46c-.16-1-1.64-1.82-2.53-2.73-.7.9-1.91,1.74-2,2.69-.27,2.8,0,5.64-.1,8.47-.08,3.81-2.07,5.84-5.91,5.85s-5.22-2.42-5.35-5.82c-.12-3,.1-6-.23-9-.1-.83-1.53-1.84-2.52-2.08-.49-.13-1.84,1.2-2,2A32.16,32.16,0,0,0,371.23,365.26Zm-67.59-3.5c-.11-.58-.22-1.17-.34-1.76-5.71-4-12.33-3.51-16,1.21a11.58,11.58,0,0,0,2,15.7c4.77,3.72,10.32,3,15.25-3a41.84,41.84,0,0,1-5.74-.05c-2.58-.41-6.15-.31-7.36-1.91s-1.05-5.41-.09-7.66c1.23-2.9,4.19-3.12,7.32-2C300.1,362.79,302,362,303.64,361.76Zm-35-1.23c-5-4.52-12.4-4.16-16.22.72s-2.53,12.38,2.53,15.91,10.49,2.67,14.41-3.38c-2.58.23-4.34.76-5.94.44-2.55-.51-5.87-.91-7.21-2.64-1.18-1.51-1-5.46.28-7.09s4.68-2.3,6.76-1.79C266.05,363.4,267.57,363.22,268.6,360.53Zm-120.45,1.3c-5.38-5.9-12.31-5.51-16.08-.81s-2.78,12.21,2.12,16c4.69,3.6,10.25,2.89,14.62-2.88-2.24-.1-3.9-.64-5.13-.14-3.29,1.37-6.34.85-7.79-2.05a9.57,9.57,0,0,1-.1-7.39c1.38-2.95,4.39-3.51,7.74-2.25C144.83,362.79,146.6,362,148.15,361.83Zm205,.45c1.65-.17,2.58,0,3.25-.38a37.74,37.74,0,0,0,3.76-2.56c-1.3-.61-2.58-1.66-3.92-1.75a93,93,0,0,0-10.95,0c-.87,0-1.69,1.06-2.53,1.63.76.82,1.52,2.33,2.28,2.33,3.43,0,3.61,2,3.52,4.62a78.47,78.47,0,0,0,.1,9.94c.11,1.08,1.52,2,2.33,3.05.72-1.06,2-2.08,2.06-3.17C353.24,371.59,353.1,367.12,353.1,362.28Z" transform="translate(-25.27 -18.45)"/><path class="cls-2" d="M288.23,135.39q30.72,13.73,61.44,27.45c4.71,2.09,9.44,4.16,14.25,6,7.05,2.67,9.86,7.78,9.81,15.11-.12,18.83-.05,37.66-.05,56.49v5.43l17.05-3.77.49,1.43c-4.74,2.52-9.61,4.86-14.16,7.69-1.49.92-3.14,3.16-3.08,4.74.92,23.35-9.18,41.05-27.48,54.69-.24.18-.34.54-.84,1.35C357.6,316.56,370,320,381,326.5l-.68,1.7c-6.88-2-13.81-3.93-20.65-6.1-13.16-4.17-26.23-8.63-39.44-12.63a10.72,10.72,0,0,0-7.32.77c-6.69,3.51-13.1,7.57-19.61,11.41a30.65,30.65,0,0,0-5.45-1.77,45.29,45.29,0,0,0-6.59,0c8.6-5.31,17.23-10.58,25.79-15.94,7.12-4.45,14.17-9,21.25-13.53l-2-.07-3.07,0-6,.21c-12,7-24.09,13.61-35.76,21-5,3.17-8.71,3.09-12.69-.89,2.14-.53,6.21.5,5-3.4-1.5-4.7-4.43-8.94-6.68-13.41-.71-1.41-1.25-2.91-1.87-4.36,0-.69,0-1.38,0-2.07v0l1.07-.87,2.73-4.22,1.25.11c.11,2,.11,4.2,3,2l7.49-.35c2.54.39,5.1,1.18,7.62,1.07a79.82,79.82,0,0,0,9.62-1.53l.39-.18,4.6-.92c5.17,5.94,8.73,5.31,11.45-2l3.78,1.12c1.7,1.47,3.23,3.42,5.21,4.17.79.29,2.58-2.06,3.92-3.21l.71-1.1c0-.69.05-1.38.07-2.07l-.63-2.47-.9-2.17-4.36-2.69L317,276.88l-2.72.62c-2.81-6.61-4.64-7.7-9.94-5.94l-1.14.88a2.18,2.18,0,0,1-.89.33l-5.16-2.24h-1l-1,0-9.06-4V233.67l3.85,1.84v3q0,9.47,0,18.94c0,.68,0,1.36,0,2-.12.1-.35.24-.33.29a5.23,5.23,0,0,0,.37.7l6.11,1.13,4.43.74,3.59.31,3.53.69,2.43-.33,1,.59.95.11,16.09,2,1.62.51,5.36.36,2.88.3,3.1.6c0,.33,0,.66,0,1l-3.12,2.17c7.23,4.65,7.4,5.11,3.53,8.72-1.77-2.88-2.78-6.74-7.49-5.89l-.85,1c-2.12,4.65-1.48,9,1.63,11,3.62,2.26,4.71-1,6.45-2.94q3-2.93,5.92-5.87c1.3-2.61,3.68-5.22,3.71-7.85.25-19.8,0-39.62,0-59.43q-.08-7-.13-14.06c-.33-1.81,0-4.43-1.13-5.28-2.5-2-5.67-3.05-8.57-4.5l-52.91-24.2,4-7.38c19.48,8.66,38.86,17.57,58.52,25.82,6.11,2.57,9.93,5.54,8.86,12.59-.09,23-.36,46-.19,69a35,35,0,0,1-8.95,24.25c-4.38,4.93-9.86,8.88-14.61,13.51-1.25,1.21-2.72,3.82-2.21,4.91,1.28,2.73,4,2.63,6.36.91,9.95-7.3,18.59-15.77,23.18-27.53,1.38-3.53,2.87-7.33,2.9-11,.24-25.32.11-50.64.09-76,.71-9.81-.14-11.21-9.2-15.15-1.07-.46-2.12-1-3.19-1.43l-61.49-27.71-7.13-2.58-1.28-1.73ZM315.57,265.5c-.34.38-.84.7-.83,1s.67.87.81.81a5.11,5.11,0,0,0,1.2-1Z" transform="translate(-25.27 -18.45)"/><path class="cls-3" d="M281.22,319.87a45.29,45.29,0,0,1,6.59,0,30.65,30.65,0,0,1,5.45,1.77c-2.46,1.64-4.87,3.38-7.4,4.91-7.39,4.46-14.7,4.24-22-.36-8.56-5.4-17.28-10.55-25.79-16-2.93-1.88-5.47-2.35-8.79-1-4.23,1.74-8.74,2.84-13.12,4.22,1.21-4.3-2.76-5.32-4.79-7.56l5.54-1.94c-.9-1.71-1.39-3.89-2.75-5.05-6.9-5.91-13.89-11.67-17.77-20.21l2.33-1.73-4.59-3.39q-1.29-3.56-2.6-7.11c.12-.62.23-1.24.35-1.86l7.85-4c-.16,5.61-1.24,11.41,3.45,16l1.05,2a5.16,5.16,0,0,0,0,.88l2.34,1,2.67-.58c8.78,0,17.58-.32,26.35.13,5.2.26,8.91-.46,9.59-6.39l2.78,1,.09,3,.36,1.91,1.3-1c.15-.32.29-.65.44-1h0l2.55.15.28,4c-.09.11-.28.29-.25.34a5.82,5.82,0,0,0,.48.63l5.9,5.72,6.15,1.29c.62,1.45,1.16,3,1.87,4.36,2.25,4.47,5.18,8.71,6.68,13.41,1.24,3.9-2.83,2.87-5,3.4a.51.51,0,0,1-.61-.34l-1.07-.79.08.08-2-1.12h0l-1.2-.89.11.14-2.05-1.15.09.06-2-1.15h0l-1.47-.93-25-14.92c-2.34,4.7-1.38,7.4,3.1,9.93,9.68,5.46,18.79,11.92,28.47,17.39,4,2.25,8.84,3,13.3,4.45l1.59-1Z" transform="translate(-25.27 -18.45)"/><path class="cls-4" d="M288.23,135.39l-4.31,6.45c-5.87-3.24-11.23-3.43-17.76-.31-24.44,11.7-49.3,22.53-73.86,34-3.05,1.42-5.26,4.65-7.85,7l-7.3.93c-.81-6.88,2.2-11.39,8.42-14.2q40.88-18.43,81.67-37C275.05,128.67,281.73,131.07,288.23,135.39Z" transform="translate(-25.27 -18.45)"/><path class="cls-5" d="M177.15,183.49l7.3-.93c0,26.56-.17,53.12,0,79.67,0,4,1.56,8,2.4,12,1,2.77,2,5.54,3.07,8.32l-5.95,4c-5.66-8.66-7.49-18.33-7.11-28.45.15-3.66-.88-5.59-4.43-7.07a58.56,58.56,0,0,1-14.57-9l19.27,4.18Z" transform="translate(-25.27 -18.45)"/><path class="cls-6" d="M184,286.59l5.95-4,1.4,2.5.91,1.42,0,0,.78,1.07a.62.62,0,0,1,.33.6l.95,1.35,0-.05.9,1.12,0,0c.43.59.87,1.17,1.31,1.76l-.07-.05,1,1.11-.06-.05,1,1.11-.05,0,1,1.08,3.94,4,.88,1.1,7.26,5.35c2,2.24,6,3.26,4.79,7.56l-27.9,8.5-.22-3.68L203.25,312Z" transform="translate(-25.27 -18.45)"/><path class="cls-7" d="M205,368.89c-1.51,2.33-3,4.65-5,7.62-1.82-2.43-3.36-4.47-4.9-6.51l-1.06,0a35.16,35.16,0,0,1-.09,6c-.21,1.16-1.34,2.16-2.05,3.23-.84-1.12-2.33-2.22-2.39-3.38-.27-5-.21-10,0-15,0-1.07,1-2.11,1.53-3.17,1.19.63,2.88.95,3.49,1.94,1.79,2.9,3.15,6.08,4.66,9.12,5.09-2.72,3.12-11.49,11.57-11.13,0,6.59.09,12.86-.11,19.11,0,.83-1.56,1.6-2.39,2.4-.71-.9-1.89-1.74-2-2.71a61.07,61.07,0,0,1-.1-7.29Z" transform="translate(-25.27 -18.45)"/><path class="cls-8" d="M236,368.31l-5.23,8.07-5.58-6.92a61.1,61.1,0,0,1-.09,7.58c-.12.81-1.28,1.48-2,2.21-.7-.73-2-1.44-2-2.2q-.37-8.48-.23-17a3,3,0,0,1,1.81-2.28,3.4,3.4,0,0,1,2.65,1.57c1.68,3,3.08,6.16,5,10.17,1.8-3.14,3.25-5.46,4.49-7.88s2.06-5.15,6.25-3.34c0,5.91.09,12-.1,18.14,0,.92-1.32,1.8-2,2.7-.8-.83-2.12-1.56-2.31-2.51A71.82,71.82,0,0,1,236,368.31Z" transform="translate(-25.27 -18.45)"/><path class="cls-8" d="M159.05,367.87c.09-6.43,4.43-10.69,10.76-10.56a11,11,0,0,1,.08,22A11.2,11.2,0,0,1,159.05,367.87Zm9.93,6.7c4.46.08,7.23-2.53,7.15-6.13-.1-3.92-2.49-6.07-6.12-6.62-3.21-.48-6.37,2.8-6.18,6.24C164,371.8,165.78,374.29,169,374.57Z" transform="translate(-25.27 -18.45)"/><path class="cls-8" d="M312.53,378.13c2.7-6.37,5.19-12.85,8.22-19.07,1.23-2.51,3.89-2.21,5.07.29,2.89,6.11,5.4,12.4,8.71,20.14-4.87-1.6-8.21-3.56-11.55-3.55-3.16,0-6.31,2.09-9.47,3.25Z" transform="translate(-25.27 -18.45)"/><path class="cls-8" d="M402.72,357.58c4.31,0,7.47-.13,10.63,0,4.89.26,7.9,3.34,7.95,7.86.05,4.69-2.54,7.53-7.56,8.19-1.81.23-3.63.39-5.78.62a10,10,0,0,1-.84,3.14,3.92,3.92,0,0,1-2.55,1.59c-.56.05-1.76-1.16-1.77-1.82C402.66,370.77,402.72,364.34,402.72,357.58ZM407.49,370a51.09,51.09,0,0,0,8-2.09c.59-.25.78-3.67.29-3.92a60.66,60.66,0,0,0-8.33-2.92Z" transform="translate(-25.27 -18.45)"/><path class="cls-8" d="M371.23,365.26a32.16,32.16,0,0,1,.09-5.47c.14-.81,1.49-2.14,2-2,1,.24,2.42,1.25,2.52,2.08.33,3,.11,6,.23,9,.13,3.4,1.51,5.83,5.35,5.82s5.83-2,5.91-5.85c.06-2.83-.17-5.67.1-8.47.09-.95,1.3-1.79,2-2.69.89.91,2.37,1.71,2.53,2.73a41.23,41.23,0,0,1,.13,7.46c-.19,7.22-4.41,11.66-10.89,11.54s-9.84-4.11-9.95-11.6C371.22,366.93,371.23,366.09,371.23,365.26Z" transform="translate(-25.27 -18.45)"/><path class="cls-8" d="M303.64,361.76c-1.67.22-3.54,1-5,.54-3.13-1.09-6.09-.87-7.32,2-1,2.25-1.19,6,.09,7.66s4.78,1.5,7.36,1.91a41.84,41.84,0,0,0,5.74.05c-4.93,6-10.48,6.68-15.25,3a11.58,11.58,0,0,1-2-15.7c3.66-4.72,10.28-5.22,16-1.21C303.42,360.59,303.53,361.18,303.64,361.76Z" transform="translate(-25.27 -18.45)"/><path class="cls-8" d="M268.6,360.53c-1,2.69-2.55,2.87-5.39,2.17-2.08-.51-5.61.27-6.76,1.79s-1.46,5.58-.28,7.09c1.34,1.73,4.66,2.13,7.21,2.64,1.6.32,3.36-.21,5.94-.44-3.92,6.05-9.34,6.91-14.41,3.38s-6.27-11.13-2.53-15.91S263.59,356,268.6,360.53Z" transform="translate(-25.27 -18.45)"/><path class="cls-7" d="M148.15,361.83c-1.55.2-3.32,1-4.62.47-3.35-1.26-6.36-.7-7.74,2.25a9.57,9.57,0,0,0,.1,7.39c1.45,2.9,4.5,3.42,7.79,2.05,1.23-.5,2.89,0,5.13.14-4.37,5.77-9.93,6.48-14.62,2.88-4.9-3.78-5.9-11.28-2.12-16S142.77,355.93,148.15,361.83Z" transform="translate(-25.27 -18.45)"/><path class="cls-7" d="M353.1,362.28c0,4.84.14,9.31-.1,13.75-.05,1.09-1.34,2.11-2.06,3.17-.81-1-2.22-2-2.33-3.05a78.47,78.47,0,0,1-.1-9.94c.09-2.59-.09-4.61-3.52-4.62-.76,0-1.52-1.51-2.28-2.33.84-.57,1.66-1.59,2.53-1.63a93,93,0,0,1,10.95,0c1.34.09,2.62,1.14,3.92,1.75a37.74,37.74,0,0,1-3.76,2.56C355.68,362.25,354.75,362.11,353.1,362.28Z" transform="translate(-25.27 -18.45)"/><path class="cls-5" d="M188,318.24l.22,3.68-18,5.41c-.08-.74-.16-1.49-.23-2.23Z" transform="translate(-25.27 -18.45)"/><path class="cls-9" d="M277.12,406.63c-1.77-.11-3.52-.32-2.75,2.51a10.9,10.9,0,0,1,.06,6l-4.5-6.19c2.82-.76,2.56-7.93,7.87-3.05A6.34,6.34,0,0,0,277.12,406.63Z" transform="translate(-25.27 -18.45)"/><path class="cls-9" d="M277.8,405.94l2.89,3.59-3.39,4.1-1.19-.17c.33-2.28.67-4.55,1-6.83A6.34,6.34,0,0,1,277.8,405.94Z" transform="translate(-25.27 -18.45)"/><path class="cls-10" d="M170,325.1c.07.74.15,1.49.23,2.23l-4.88,1.08-.49-1.51Z" transform="translate(-25.27 -18.45)"/><path class="cls-11" d="M288.25,161.39l52.91,24.2c.51,3.74-1.9,4.15-4.66,4-3-.19-4.24,1.12-4.1,4.12.24,5,.3,9.95.44,14.93l-3.61,2.93c1-6-3.44-5.19-6.94-5.55-.09-1.73-.17-3.46-.25-5.09-6.77-.82-6.75-.82-6.82,5,0,3.13-.18,6.25-.28,9.38l-6.45-5.18L306.66,208c-.13-2.94-.29-5.88-.39-8.82-.08-2.24.52-4.54-3.11-4.88s-5.28,1-5.66,4.33c-.23,2-.14,3.93-.19,5.9l-3.06-.05a34.82,34.82,0,0,0-2.7-4c-1.31-1.49-4.13-2.78-4.1-4.1.1-4-2.31-5-5.22-5.84-5.94.8-8.94,5-10.86,9.35-2.36-.73-4.54-2.19-6.06-1.68-1.79.6-3,2.9-4.19,4.16-1-.78-2.24-2.51-3.51-2.55-2.23-.06-4.62.6-4.5,3.95,0,.84-1.29,1.72-2,2.59l-2.85,0c-.16-5.79-6.16-5.26-8.9-6.25-4.76-1.73-5.31,3.93-5.65,6.28l-8.61-1v8.08a5.63,5.63,0,0,0-.93.12l-1,.21c-.42-1.72-.85-3.45-1.27-5.18.08-2.48.24-5,.21-7.46,0-3.78-2.5-5.27-5.65-4.28-3.47,1.09-7.56,2.42-6.24,7.71h0l-1.78,2-.14,3-2.11.27a48.5,48.5,0,0,1-2-5.84c-1.07-5.11-1.92-10.25-2.86-15.38,20.12-9.23,40.44-18.06,60.28-27.86,8.73-4.3,16.53-6.06,24.84,0A7.61,7.61,0,0,0,288.25,161.39Z" transform="translate(-25.27 -18.45)"/><path class="cls-12" d="M186.87,274.23c-.84-4-2.37-8-2.4-12-.19-26.55-.05-53.11,0-79.67,2.59-2.39,4.8-5.62,7.85-7,24.56-11.46,49.42-22.29,73.86-34,6.53-3.12,11.89-2.93,17.76.31.43.58.85,1.16,1.28,1.73-.38,2-.75,4-1.13,6-2-.82-3.85-2-5.9-2.39s-4.76-.9-6.6-.07c-15.24,6.87-30.34,14-45.49,21.11l-4.38,2a.41.41,0,0,0-.51.17l-1.57.82-.43.12-2.13,1,.05,0-2.09,1,0,0-9,4.06,0-.05-4.11,1.9v0L199,180.36l.05,0-2.3,1a.61.61,0,0,0-.62.21l-1.51.76a.38.38,0,0,0-.49.18l-1.2.89v-.06l-1.1,1.36a27,27,0,0,0-.42,3.43q-.06,36.28,0,72.58a34.68,34.68,0,0,0,.45,3.91c-.12.62-.23,1.24-.35,1.86C185.84,266.57,187.72,271.21,186.87,274.23Z" transform="translate(-25.27 -18.45)"/><path class="cls-13" d="M196.17,181.52a.61.61,0,0,1,.62-.21l2.3-1-.05,0,2.92-1.21v0l4.11-1.9,0,.05,9-4.06,0,0,2.09-1-.05,0,2.13-1,.43-.12,1.57-.82a.41.41,0,0,1,.51-.17l4.38-2c15.15-7.08,30.25-14.24,45.49-21.11,1.84-.83,4.46-.36,6.6.07s3.94,1.57,5.9,2.39l7,3.31,1.16,1.14-4,7.38a7.61,7.61,0,0,1-1.84-.69c-8.31-6-16.11-4.27-24.84,0-19.84,9.8-40.16,18.63-60.28,27.86-.41,1.63-1.17,3.26-1.18,4.89-.14,17.69-.15,35.39-.2,53.08l-6.75,4.05V184.46l-.19-1.17v.06l1.2-.89a.38.38,0,0,1,.49-.18Z" transform="translate(-25.27 -18.45)"/><path class="cls-14" d="M366.21,190.44c0,25.33.15,50.65-.09,76,0,3.7-1.52,7.5-2.9,11C358.63,289.2,350,297.67,340,305c-2.35,1.72-5.08,1.82-6.36-.91-.51-1.09,1-3.7,2.21-4.91,4.75-4.63,10.23-8.58,14.61-13.51a35,35,0,0,0,8.95-24.25c-.17-23,.1-46,.19-69Z" transform="translate(-25.27 -18.45)"/><path class="cls-10" d="M351,209.43c.08,19.81.3,39.63,0,59.43,0,2.63-2.41,5.24-3.71,7.85-2.6-3-2.87-6.12-.07-9.2.06-5.14.3-10.28.05-15.39-.08-1.41-1.36-3.53-2.59-4-7.59-2.8-15.31-5.23-23-7.78l-3.48-2c6.77-6.5,13.4-13.14,20.36-19.43C342.45,215.48,346.84,212.59,351,209.43Z" transform="translate(-25.27 -18.45)"/><path class="cls-15" d="M268.16,310.36a.51.51,0,0,0,.61.34c4,4,7.7,4.06,12.69.89,11.67-7.41,23.81-14.06,35.76-21l6-.21,3.07,0,2,.07c-7.08,4.52-14.13,9.08-21.25,13.53-8.56,5.36-17.19,10.63-25.79,15.94l-1,.62-1.59,1c-4.46-1.44-9.31-2.2-13.3-4.45-9.68-5.47-18.79-11.93-28.47-17.39-4.48-2.53-5.44-5.23-3.1-9.93l25,14.92,1.47.93h0l2,1.15-.09-.06,2.05,1.15-.11-.14,1.2.89h0l2,1.12-.08-.08Z" transform="translate(-25.27 -18.45)"/><path class="cls-15" d="M366.21,190.44l-6.57,2c1.07-7-2.75-10-8.86-12.59-19.66-8.25-39-17.16-58.52-25.82l-1.16-1.14,1.23-6.72,61.49,27.71c1.07.47,2.12,1,3.19,1.43C366.07,179.23,366.92,180.63,366.21,190.44Z" transform="translate(-25.27 -18.45)"/><path class="cls-16" d="M321.72,240.35c7.68,2.55,15.4,5,23,7.78,1.23.46,2.51,2.58,2.59,4,.25,5.11,0,10.25-.05,15.39l-3.07.18-2.94-.17-3.1-.6-2.88-.3-5.36-.36-1.62-.51-16.09-2a.89.89,0,0,0-.95-.11l-1-.59,2.49-2.73c2.27,1.52,3.18.42,3.5-1.81,3.12-2,3.14-4,0-6l0-9Zm7.44,22.19c.58-6.32,2.32-12.7-.92-18.66C327.8,250.18,326.15,256.53,329.16,262.54Zm12.64,2.2V248C338.39,251.12,338.47,261.78,341.8,264.74Z" transform="translate(-25.27 -18.45)"/><path class="cls-15" d="M312.73,260.32l-2.5,2.73-2.43.33-3.53-.69-3.6-.31-4.42-.74-6.11-1.13,0-1c0-.68,0-1.36,0-2q0-9.47,0-18.94v-3c.16-1.91.33-3.82.49-5.73l15.78,4.38,9.86,3.38c0,.31.05.62.07.93l-.25.23c-2.42-.56-3.69.07-3.59,2.89C312.63,247.83,312.64,254.08,312.73,260.32Zm-16.88-27.06c-1.69,8.24-1,22.9,1.14,25C299.09,253.63,298.55,235.89,295.85,233.26Zm7.93,2.09-1.33.14v23.15l1.33-.06Z" transform="translate(-25.27 -18.45)"/><path class="cls-9" d="M316.26,238.47c0-.31-.05-.62-.07-.93l.06-15c.34-.64.69-1.27,1-1.9,2.5,1.63,3.15-.41,4-2l7.94-7,3.61-2.93c3.76-3.17,7.42-6.47,11.32-9.46a53.31,53.31,0,0,1,6.7-3.78q.06,7,.13,14.06c-4.15,3.16-8.54,6-12.39,9.53-7,6.29-13.59,12.93-20.36,19.43Z" transform="translate(-25.27 -18.45)"/><path class="cls-8" d="M350.86,195.37a53.31,53.31,0,0,0-6.7,3.78c-3.9,3-7.56,6.29-11.32,9.46-.14-5-.2-10-.44-14.93-.14-3,1.08-4.31,4.1-4.12,2.76.18,5.17-.23,4.66-4,2.9,1.45,6.07,2.54,8.57,4.5C350.82,190.94,350.53,193.56,350.86,195.37Z" transform="translate(-25.27 -18.45)"/><path class="cls-15" d="M252.91,281.55c-.09-1.33-.19-2.66-.28-4,.24-.79.42-1.6.73-2.37,1.57-3.86,4.1-6.54,8.63-5.94s6.78,3.81,7.22,8.2a31.48,31.48,0,0,1-.27,4.93l-2.73,4.22-1.07.87v0l-6.11.78-5.9-5.72C253.07,282.2,253,281.87,252.91,281.55Zm8.81-8.62c-1.75,2.58-3.56,4.09-3.35,5.2.29,1.51,2.13,2.72,3.31,4.06,1.12-1.18,3.1-2.33,3.15-3.56C264.9,277.17,263.3,275.64,261.72,272.93Z" transform="translate(-25.27 -18.45)"/><path class="cls-17" d="M286.21,266.52l9.06,4,1,0h1l1.14,13-.39.18c-4.37-.31-8.73-.75-13.1-.85-1.37,0-2.76.85-4.14,1.31l-7.49.35c.05-1.42.1-2.83.14-4.25l5.92,1.06c1.49.07,3,.22,4.46.17,5.21-.17,5.68-1.22,4.86-6.41-.9-5.76-5-6.25-9.41-6.77C280.7,264.47,283.91,267.31,286.21,266.52Z" transform="translate(-25.27 -18.45)"/><path class="cls-14" d="M314.38,280.57c-2.72,7.34-6.28,8-11.45,2-.25-.7-.51-1.39-.76-2.09l0-5,.15-2.75a2.18,2.18,0,0,0,.89-.33l1.14-.88c5.3-1.76,7.13-.67,9.94,5.94Z" transform="translate(-25.27 -18.45)"/><path class="cls-17" d="M268.94,282.39a31.48,31.48,0,0,0,.27-4.93c-.44-4.39-2.57-7.57-7.22-8.2s-7.06,2.08-8.63,5.94c-.31.77-.49,1.58-.73,2.37l-2.55-.15c.56-10.08,7.39-15,15.35-11.11,4.7,2.31,7.51,5.84,7.66,11.22-4.08-.15-2.5,3-2.9,5Z" transform="translate(-25.27 -18.45)"/><path class="cls-18" d="M334.17,273.51c4.71-.85,5.72,3,7.49,5.89-.08,1.06-.17,2.12-.26,3.18-1.74,1.89-2.83,5.2-6.45,2.94-3.11-1.94-3.75-6.32-1.63-11Z" transform="translate(-25.27 -18.45)"/><path class="cls-19" d="M286.21,266.52c-2.3.79-5.51-2-7,1.79l-2.93-.12c-.57-5.51-4.17-.49-6-1.71l-2.07-1.19-1-.78-1-.31c-.35-1.19-.69-2.38-1-3.57l7,.95,2,.17,8,.93,1-.07,1-2.1a6.32,6.32,0,0,1,.76-.11l1.23.12Z" transform="translate(-25.27 -18.45)"/><path class="cls-14" d="M327.29,282.65c-1.34,1.15-3.13,3.5-3.92,3.21-2-.75-3.51-2.7-5.21-4.17-.37-1.6-.75-3.21-1.12-4.81l5.14-4.73v9.28l2.43.32q1-3.47,1.93-6.91l.9,2.17.63,2.47c0,.69-.05,1.38-.07,2.07C327.76,281.92,327.52,282.28,327.29,282.65Z" transform="translate(-25.27 -18.45)"/><path class="cls-3" d="M286.21,260.52,285,260.4c.06-10.32.14-20.64.18-31,0-2.21-.32-4.52,3-4.52l2.43,4.86c-.16,1.91-.33,3.82-.49,5.73l-3.85-1.84Z" transform="translate(-25.27 -18.45)"/><path class="cls-5" d="M341.4,282.58c.09-1.06.18-2.12.26-3.18,3.87-3.61,3.7-4.07-3.53-8.72l3.12-2.17,2.93-.82,3.07-.18c-2.8,3.08-2.53,6.15.07,9.2Q344.37,279.65,341.4,282.58Z" transform="translate(-25.27 -18.45)"/><path class="cls-20" d="M292.33,146.15l-1.23,6.72-7-3.31c.38-2,.75-4,1.13-6Z" transform="translate(-25.27 -18.45)"/><path class="cls-19" d="M302.35,272.77l-.15,2.75,0,5c.25.7.51,1.39.76,2.09l-4.6.92-1.14-13Z" transform="translate(-25.27 -18.45)"/><path class="cls-18" d="M280.7,284.16c1.38-.46,2.77-1.34,4.14-1.31,4.37.1,8.73.54,13.1.85a79.82,79.82,0,0,1-9.62,1.53C285.8,285.34,283.24,284.55,280.7,284.16Z" transform="translate(-25.27 -18.45)"/><path class="cls-18" d="M326.54,274.84q-1,3.45-1.93,6.91l-2.43-.32v-9.28Z" transform="translate(-25.27 -18.45)"/><path class="cls-19" d="M270.19,282.5c.4-2-1.18-5.12,2.9-5,.08.91.17,1.82.26,2.73,0,1.42-.09,2.83-.14,4.25C270.3,286.7,270.3,284.52,270.19,282.5Z" transform="translate(-25.27 -18.45)"/><path class="cls-3" d="M290.06,238.54q0,9.47,0,18.94Q290.07,248,290.06,238.54Z" transform="translate(-25.27 -18.45)"/><path class="cls-19" d="M317,276.88c.37,1.6.75,3.21,1.12,4.81l-3.78-1.12-.06-3.07Z" transform="translate(-25.27 -18.45)"/><path class="cls-19" d="M259,288.24l6.11-.78c0,.69,0,1.38,0,2.07Z" transform="translate(-25.27 -18.45)"/><path class="cls-19" d="M323.2,290.36l-6,.21Z" transform="translate(-25.27 -18.45)"/><path class="cls-19" d="M315.57,265.5l1.18.8a5.11,5.11,0,0,1-1.2,1c-.14.06-.79-.51-.81-.81S315.23,265.88,315.57,265.5Z" transform="translate(-25.27 -18.45)"/><path class="cls-19" d="M296.25,261.64l4.42.74Z" transform="translate(-25.27 -18.45)"/><path class="cls-19" d="M344.18,267.69l-2.93.82c0-.33,0-.66,0-1Z" transform="translate(-25.27 -18.45)"/><path class="cls-19" d="M304.27,262.69l3.53.69Z" transform="translate(-25.27 -18.45)"/><path class="cls-19" d="M335.26,266.62l2.88.3Z" transform="translate(-25.27 -18.45)"/><path class="cls-18" d="M328.07,279.48l-.63-2.47Z" transform="translate(-25.27 -18.45)"/><path class="cls-19" d="M334.17,273.51l-.85,1Z" transform="translate(-25.27 -18.45)"/><path class="cls-19" d="M328.26,290.4l-2-.07Z" transform="translate(-25.27 -18.45)"/><path class="cls-19" d="M265.14,287.48l1.07-.87Z" transform="translate(-25.27 -18.45)"/><path class="cls-19" d="M328.28,265.75l1.62.51Z" transform="translate(-25.27 -18.45)"/><path class="cls-18" d="M327.29,282.65c.23-.37.47-.73.71-1.1C327.76,281.92,327.52,282.28,327.29,282.65Z" transform="translate(-25.27 -18.45)"/><path class="cls-3" d="M290.1,259.52l0,1a5.23,5.23,0,0,1-.37-.7C289.75,259.76,290,259.62,290.1,259.52Z" transform="translate(-25.27 -18.45)"/><path class="cls-19" d="M304.38,271.56l-1.14.88Z" transform="translate(-25.27 -18.45)"/><path class="cls-19" d="M296.23,270.52l-1,0Z" transform="translate(-25.27 -18.45)"/><path class="cls-19" d="M311.24,263.64a.89.89,0,0,1,.95.11Z" transform="translate(-25.27 -18.45)"/><path class="cls-21" d="M245.16,273.52c-.68,5.93-4.39,6.65-9.59,6.39-8.77-.45-17.57-.13-26.35-.13-.43-1.68-.85-3.35-1.37-5.43l-3.95,2.11.24-2.95,2.31-.12c6.48-.42,13-.87,19.44-1.25,2.93-.16,5.15-.89,4.69-5l-20.44,2.08-1,.07-2.81,1.24-1.46-.08c.17-1.31.34-2.63.5-3.95l3-.15c4.46-.52,8.95-.88,13.36-1.64,1.41-.24,2.64-1.54,3.95-2.36l2.47,1.18,20,1.06c0,.23,0,.47-.06.7Q246.65,269.43,245.16,273.52Z" transform="translate(-25.27 -18.45)"/><path class="cls-20" d="M186.87,274.23c.85-3-1-7.66,4.65-7.8q1.3,3.56,2.6,7.11c.75,1.71,1.51,3.41,2.26,5.12,3.88,8.54,10.87,14.3,17.77,20.21,1.36,1.16,1.85,3.34,2.75,5.05l-5.54,1.94-7.26-5.35-.88-1.1-3.94-4-1-1.08.05,0-1-1.11.06.05-1-1.11.07.05c-.44-.58-.88-1.17-1.31-1.76l0,0-.9-1.12,0,.05-.95-1.35a.62.62,0,0,0-.33-.6l-.78-1.07,0,0c-.31-.47-.61-.94-.91-1.42l-1.4-2.5C188.92,279.77,187.89,277,186.87,274.23Z" transform="translate(-25.27 -18.45)"/><path class="cls-6" d="M193.16,184.46v66.15l6.75-4.05.27,5.94q-.24,4-.46,8l-7.85,4a34.68,34.68,0,0,1-.45-3.91q0-36.29,0-72.58a27,27,0,0,1,.42-3.43Z" transform="translate(-25.27 -18.45)"/><path class="cls-7" d="M199.72,260.53q.22-4,.46-8l8.06,3.06q-1.41,5.49-2.83,11c-.16,1.32-.33,2.64-.49,3.95l-.78,3-.24,2.95c-.25,0-.49,0-.73,0C198.48,271.94,199.56,266.14,199.72,260.53Z" transform="translate(-25.27 -18.45)"/><path class="cls-18" d="M273.35,280.26c-.09-.91-.18-1.82-.26-2.73-.15-5.38-3-8.91-7.66-11.22-8-3.9-14.79,1-15.35,11.11h0c-.15.32-.29.65-.44,1l-1.3,1-.36-1.91-.09-3,3.46-8.4c4.55-3.74,9.43-4.95,14.85-1.89l1,.31,1,.78,2.07,1.19,3.84,4.87,5.16,10Z" transform="translate(-25.27 -18.45)"/><path class="cls-22" d="M251.4,266.09l-3.46,8.4-2.78-1q1.49-4.09,3-8.19l1.55-1Z" transform="translate(-25.27 -18.45)"/><path class="cls-23" d="M203.17,276.5c.24,0,.48,0,.73,0l3.95-2.11c.52,2.08.94,3.75,1.37,5.43l-2.68.58-.4-.72-1.92-1.14Z" transform="translate(-25.27 -18.45)"/><path class="cls-6" d="M196.38,278.66c-.75-1.71-1.51-3.41-2.26-5.12l4.59,3.39Z" transform="translate(-25.27 -18.45)"/><path class="cls-22" d="M248,277.53l.36,1.91Z" transform="translate(-25.27 -18.45)"/><path class="cls-21" d="M204.22,278.5l1.92,1.14-1.93-.26A5.16,5.16,0,0,1,204.22,278.5Z" transform="translate(-25.27 -18.45)"/><path class="cls-6" d="M204.21,279.38l1.93.26.4.72Z" transform="translate(-25.27 -18.45)"/><path class="cls-19" d="M267.17,309.65l-2-1.12Z" transform="translate(-25.27 -18.45)"/><path class="cls-19" d="M264.11,307.78l-2.05-1.15Z" transform="translate(-25.27 -18.45)"/><path class="cls-19" d="M262.15,306.69l-2-1.15Z" transform="translate(-25.27 -18.45)"/><path class="cls-19" d="M260.19,305.54l-1.47-.93Z" transform="translate(-25.27 -18.45)"/><path class="cls-19" d="M265.2,308.53l-1.2-.89Z" transform="translate(-25.27 -18.45)"/><path class="cls-2" d="M268.16,310.36l-1.07-.79Z" transform="translate(-25.27 -18.45)"/><path class="cls-2" d="M278.61,321.46l1.59-1Z" transform="translate(-25.27 -18.45)"/><path class="cls-17" d="M252.91,281.55c.08.32.16.65.23,1a5.82,5.82,0,0,1-.48-.63C252.63,281.84,252.82,281.66,252.91,281.55Z" transform="translate(-25.27 -18.45)"/><path class="cls-17" d="M249.69,278.4c.15-.32.29-.65.44-1C250,277.75,249.84,278.08,249.69,278.4Z" transform="translate(-25.27 -18.45)"/><path class="cls-5" d="M195.16,290.54c.43.59.87,1.18,1.31,1.76C196,291.71,195.59,291.13,195.16,290.54Z" transform="translate(-25.27 -18.45)"/><path class="cls-5" d="M194.24,289.4l.9,1.12Z" transform="translate(-25.27 -18.45)"/><path class="cls-5" d="M196.4,292.25l1,1.11Z" transform="translate(-25.27 -18.45)"/><path class="cls-5" d="M197.32,293.31l1,1.11Z" transform="translate(-25.27 -18.45)"/><path class="cls-5" d="M198.26,294.38l1,1.08Z" transform="translate(-25.27 -18.45)"/><path class="cls-5" d="M203.22,299.41l.88,1.1Z" transform="translate(-25.27 -18.45)"/><path class="cls-5" d="M193.33,288.1l.95,1.35Z" transform="translate(-25.27 -18.45)"/><path class="cls-5" d="M192.22,286.43l.78,1.07Z" transform="translate(-25.27 -18.45)"/><path class="cls-5" d="M191.34,285.05c.3.48.6.95.91,1.42C192,286,191.64,285.53,191.34,285.05Z" transform="translate(-25.27 -18.45)"/><path class="cls-1" d="M169,374.57c-3.2-.28-4.95-2.77-5.15-6.51-.19-3.44,3-6.72,6.18-6.24,3.63.55,6,2.7,6.12,6.62C176.21,372,173.44,374.65,169,374.57Z" transform="translate(-25.27 -18.45)"/><path class="cls-1" d="M407.49,370V361.1a60.66,60.66,0,0,1,8.33,2.92c.49.25.3,3.67-.29,3.92A51.09,51.09,0,0,1,407.49,370Z" transform="translate(-25.27 -18.45)"/><path class="cls-24" d="M208.24,255.56l-8.06-3.06-.27-5.94c.05-17.69.06-35.39.2-53.08,0-1.63.77-3.26,1.18-4.89.94,5.13,1.79,10.27,2.86,15.38a48.5,48.5,0,0,0,2,5.84l1.95,1.52.16-1.79c.05-1,.09-2,.14-3l1.78-2h0c1.79.63,3.58,1.27,5.38,1.89l6.3,2.14c.42,1.73.85,3.46,1.27,5.18,0,.24,0,.49,0,.74l-1.48,1.25.32.32,1.26-1.48,1-1a5.63,5.63,0,0,1,.93-.12,51.36,51.36,0,0,0,6.92-1.23c2.58-.82,5.13-3.81,7.25.56l-7.11,2.78-3.61,1.69,2.62,1.31c0,.71,0,1.42-.05,2.13q-2.53,7-5.06,14c-3.34,1.48-6.74,2.84-10,4.46-2.71,1.35-4.42,3.35-2.78,6.64l-3.19,7.75-1.9,2.09Z" transform="translate(-25.27 -18.45)"/><path class="cls-25" d="M251.12,206.34c.7-.87,2-1.75,2-2.59-.12-3.35,2.27-4,4.5-3.95,1.27,0,2.49,1.77,3.51,2.55,1.18-1.26,2.4-3.56,4.19-4.16,1.52-.51,3.7.95,6.06,1.68,1.92-4.32,4.92-8.55,10.86-9.35l-1.08,16.08L273,208.3l-20.74,1.37Z" transform="translate(-25.27 -18.45)"/><path class="cls-26" d="M290.55,229.78l-2.43-4.85,6.25-4.32,2.24-4,6.83,1.14c1-3.13,2.13-6.42,3.22-9.72l1.83,2.13q-.14,9.18-.26,18.36l-1.9,5.67Z" transform="translate(-25.27 -18.45)"/><path class="cls-25" d="M239.28,212.71c-2.12-4.37-4.67-1.38-7.25-.56a51.36,51.36,0,0,1-6.92,1.23V205.3l8.61,1c.34-2.35.89-8,5.65-6.28,2.74,1,8.74.46,8.9,6.25a39.6,39.6,0,0,0-3.78,3,22.22,22.22,0,0,0-2.3,3.18Z" transform="translate(-25.27 -18.45)"/><path class="cls-27" d="M306.66,208c-1.09,3.3-2.19,6.59-3.22,9.72l-6.84-1.14c-.07-.69-.15-1.37-.22-2.06,3.5-3,1.87-6.54.93-10,.05-2,0-3.95.19-5.9.38-3.29,2.07-4.67,5.66-4.33s3,2.64,3.11,4.88C306.37,202.12,306.53,205.06,306.66,208Z" transform="translate(-25.27 -18.45)"/><path class="cls-27" d="M281.15,206.6l1.08-16.08c2.91.88,5.32,1.82,5.22,5.84,0,1.32,2.79,2.61,4.1,4.1a34.82,34.82,0,0,1,2.7,4l-4.13,6.1-7.9-2.1Z" transform="translate(-25.27 -18.45)"/><path class="cls-27" d="M308.23,228.49q.13-9.18.26-18.36l6.46,5.18,2.28.19.06,5.09c-.35.63-.7,1.26-1,1.9Z" transform="translate(-25.27 -18.45)"/><path class="cls-25" d="M221.87,208.53l-6.3-2.14c-1.8-.62-3.59-1.26-5.38-1.89-1.32-5.29,2.77-6.62,6.24-7.71,3.15-1,5.61.5,5.65,4.28C222.11,203.56,222,206.05,221.87,208.53Z" transform="translate(-25.27 -18.45)"/><path class="cls-24" d="M317.23,215.5l-2.28-.19c.09-3.13.23-6.25.27-9.38.07-5.85,0-5.85,6.82-5,.08,1.63.16,3.36.25,5.09l-1.14,4.4Z" transform="translate(-25.27 -18.45)"/><path class="cls-26" d="M321.15,210.39l1.14-4.4c3.5.36,8-.48,6.94,5.55l-7.94,7Q321.23,214.47,321.15,210.39Z" transform="translate(-25.27 -18.45)"/><path class="cls-24" d="M290.12,210.58l4.13-6.1,3.06.05c.94,3.45,2.57,7-.93,10Z" transform="translate(-25.27 -18.45)"/><path class="cls-24" d="M242.19,212.51a22.22,22.22,0,0,1,2.3-3.18,39.6,39.6,0,0,1,3.78-3l2.85,0,1.13,3.33-3.08,1.73Z" transform="translate(-25.27 -18.45)"/><path class="cls-25" d="M208.26,209.54l-.16,1.79-1.95-1.52Z" transform="translate(-25.27 -18.45)"/><path class="cls-25" d="M210.18,204.51l-1.78,2Z" transform="translate(-25.27 -18.45)"/><path class="cls-25" d="M223.12,214.44c0-.24,0-.49,0-.73l1-.21-1,1Z" transform="translate(-25.27 -18.45)"/><path class="cls-28" d="M215.06,173.27l-9,4.06Z" transform="translate(-25.27 -18.45)"/><path class="cls-28" d="M226.08,168.21l-4.38,2Z" transform="translate(-25.27 -18.45)"/><path class="cls-28" d="M206.06,177.28l-4.11,1.9Z" transform="translate(-25.27 -18.45)"/><path class="cls-28" d="M202,179.15,199,180.36Z" transform="translate(-25.27 -18.45)"/><path class="cls-28" d="M199.09,180.32l-2.3,1Z" transform="translate(-25.27 -18.45)"/><path class="cls-28" d="M193.16,184.46l-1.28.19,1.1-1.36Z" transform="translate(-25.27 -18.45)"/><path class="cls-28" d="M217.11,172.34l-2.09,1Z" transform="translate(-25.27 -18.45)"/><path class="cls-28" d="M219.19,171.37l-2.13,1Z" transform="translate(-25.27 -18.45)"/><path class="cls-28" d="M194.17,182.46l-1.2.89Z" transform="translate(-25.27 -18.45)"/><path class="cls-28" d="M196.17,181.52l-1.51.76Z" transform="translate(-25.27 -18.45)"/><path class="cls-28" d="M221.19,170.43l-1.57.82Z" transform="translate(-25.27 -18.45)"/><path class="cls-15" d="M316.26,238.47l2-.08,3.48,2-5.55,3.15c-.05-1.6-.1-3.2-.16-4.8Z" transform="translate(-25.27 -18.45)"/><path class="cls-28" d="M316,238.7c.06,1.6.11,3.2.16,4.8l0,9c0,2,0,4,0,6-.32,2.23-1.23,3.33-3.5,1.81-.08-6.24-.09-12.49-.3-18.73C312.32,238.77,313.59,238.14,316,238.7Z" transform="translate(-25.27 -18.45)"/><path class="cls-17" d="M329.16,262.54c-3-6-1.36-12.36-.92-18.66C331.48,249.84,329.74,256.22,329.16,262.54Z" transform="translate(-25.27 -18.45)"/><path class="cls-22" d="M341.8,264.74c-3.33-3-3.41-13.62,0-16.74Z" transform="translate(-25.27 -18.45)"/><path class="cls-15" d="M316.22,258.51c0-2,0-4,0-6C319.36,254.5,319.34,256.5,316.22,258.51Z" transform="translate(-25.27 -18.45)"/><path class="cls-7" d="M308.23,228.49l8-6-.06,15-9.86-3.38Q307.29,231.33,308.23,228.49Z" transform="translate(-25.27 -18.45)"/><path class="cls-22" d="M295.85,233.26c2.7,2.63,3.24,20.37,1.14,25C294.9,256.16,294.16,241.5,295.85,233.26Z" transform="translate(-25.27 -18.45)"/><path class="cls-17" d="M303.78,235.35v23.23l-1.33.06V235.49Z" transform="translate(-25.27 -18.45)"/><path class="cls-7" d="M321.15,210.39q.08,4.08.14,8.17c-.85,1.62-1.5,3.66-4,2l-.06-5.09Z" transform="translate(-25.27 -18.45)"/><path class="cls-17" d="M261.72,272.93c1.58,2.71,3.18,4.24,3.11,5.7-.05,1.23-2,2.38-3.15,3.56-1.18-1.34-3-2.55-3.31-4.06C258.16,277,260,275.51,261.72,272.93Z" transform="translate(-25.27 -18.45)"/><path class="cls-16" d="M279.27,281.32l-5.16-10c.71-1.05,1.43-2.1,2.14-3.16l2.93.12c4.37.52,8.51,1,9.41,6.77.82,5.19.35,6.24-4.86,6.41C282.25,281.54,280.76,281.39,279.27,281.32Z" transform="translate(-25.27 -18.45)"/><path class="cls-17" d="M302.17,280.51l0-5Z" transform="translate(-25.27 -18.45)"/><path class="cls-16" d="M284.22,260.51l-1,2.1a1.19,1.19,0,0,0-1,.07l-8-.93-2-.17-7-.95-4.08-1,.15-27.84a1.43,1.43,0,0,1,.92-.28l1.23,1c0,3.42,3.26,4.5,4.44,2.84,3.2-4.49,6.82-2.05,10.38-1.86-.18,7.34-.49,14.68-.45,22,0,1.55,1.24,3.1,1.91,4.65Z" transform="translate(-25.27 -18.45)"/><path class="cls-23" d="M284.22,260.51l-4.51-.36q-.31-13.35-.64-26.72c.1-3.89.39-7.79.19-11.66-.06-1.25-1.41-2.44-2.17-3.66,1.4-.48,3-1.59,4.18-1.3,4.42,1,8.74,2.49,13.1,3.8l-6.25,4.32c-3.28,0-2.95,2.3-3,4.51,0,10.32-.12,20.64-.18,31A6.32,6.32,0,0,0,284.22,260.51Z" transform="translate(-25.27 -18.45)"/><path class="cls-17" d="M261.13,259.65l4.08,1c.35,1.19.69,2.38,1,3.57-5.42-3.06-10.3-1.85-14.85,1.89l-1.69-1.73,2.48-2.17,1-.76,6.08-1.84Z" transform="translate(-25.27 -18.45)"/><path class="cls-17" d="M276.25,268.19c-.71,1.06-1.43,2.11-2.14,3.16l-3.84-4.87C272.08,267.7,275.68,262.68,276.25,268.19Z" transform="translate(-25.27 -18.45)"/><path class="cls-17" d="M272.21,261.58l2,.17Z" transform="translate(-25.27 -18.45)"/><path class="cls-17" d="M268.2,265.29l-1-.78Z" transform="translate(-25.27 -18.45)"/><path class="cls-17" d="M282.23,262.68a1.19,1.19,0,0,1,1-.07Z" transform="translate(-25.27 -18.45)"/><path class="cls-29" d="M252.19,262.19l-2.48,2.17-1.56,1c0-.23,0-.47.06-.7-1.91-.69-3.82-1.95-5.73-1.95-4.76,0-9.51.56-14.26.89l-2.47-1.18,1.57-5.54-6.15.65-.09-2.19a30.14,30.14,0,0,1,4.45-1.78c4.73-1.1,8.44-6.32,7.57-11.12-.08-.46-1.26-.72-1.93-1.07q1-3.37,2-6.75l4.07-.9,3.93-.83c1.61-.4,3.21-1.15,4.82-1.16,8.18,0,11.76-4.61,12.54-12.16l2.26,0q-.35,6.21-.68,12.4a33.06,33.06,0,0,0-.89,5.23c-.08,7.46,0,14.93,0,22.39l-6.08,1.84Zm-4.48-11.53-2.47.62c-5,.67-7.46,4.26-10,8.15,8.09,1.82,11.29-4.52,16.67-8.77Z" transform="translate(-25.27 -18.45)"/><path class="cls-22" d="M221.17,257.5l6.15-.65-1.57,5.54c-1.31.82-2.54,2.12-3.95,2.36-4.41.76-8.9,1.12-13.36,1.64l1.77-6.73,1.93-.42Z" transform="translate(-25.27 -18.45)"/><path class="cls-22" d="M206.37,270.57l2.81-1.24.49.08.47-.15,20.44-2.08c.46,4.07-1.76,4.8-4.69,5-6.48.38-13,.83-19.44,1.25C206.43,272.45,206.4,271.51,206.37,270.57Z" transform="translate(-25.27 -18.45)"/><path class="cls-14" d="M228.22,263.57c4.75-.33,9.5-.9,14.26-.89,1.91,0,3.82,1.26,5.73,1.95Z" transform="translate(-25.27 -18.45)"/><path class="cls-23" d="M210.21,259.66l-1.77,6.73-3,.15q1.43-5.49,2.83-11l-.05,0a5.32,5.32,0,0,1,1,.06C209.52,257,209.86,258.32,210.21,259.66Z" transform="translate(-25.27 -18.45)"/><path class="cls-23" d="M206.37,270.57c0,.94.06,1.88.08,2.82l-2.31.12.78-3Z" transform="translate(-25.27 -18.45)"/><path class="cls-23" d="M210.14,269.26l-.47.15-.49-.08Z" transform="translate(-25.27 -18.45)"/><path class="cls-6" d="M231.17,241.34c.67.35,1.85.61,1.93,1.07.87,4.8-2.84,10-7.57,11.12a30.14,30.14,0,0,0-4.45,1.78l-3.89.15-1,.09-4,.92-1.91-1.4-.16-1.58c1.06-2.59,2.13-5.17,3.19-7.75Z" transform="translate(-25.27 -18.45)"/><path class="cls-20" d="M231.17,241.34l-17.89,4.4c-1.64-3.29.07-5.29,2.78-6.64,3.27-1.62,6.67-3,10-4.46l4.16-.21,2.94.16Q232.18,238,231.17,241.34Z" transform="translate(-25.27 -18.45)"/><path class="cls-30" d="M242.19,212.51l7-1.11c-1.42,2.53-6.69,2.33-5,7.06l-7.73,2.45-5.31-.29c0-.71,0-1.42.05-2.13l1-3,7.11-2.78Z" transform="translate(-25.27 -18.45)"/><path class="cls-27" d="M231.13,220.62l5.31.29-6.21,13.52-4.16.21Q228.61,227.64,231.13,220.62Z" transform="translate(-25.27 -18.45)"/><path class="cls-25" d="M232.17,215.49l-1,3-2.62-1.31Z" transform="translate(-25.27 -18.45)"/><path class="cls-7" d="M210.09,253.49c0,.53.11,1.06.16,1.59l-1.08.56a5.32,5.32,0,0,0-1-.06Z" transform="translate(-25.27 -18.45)"/><path class="cls-25" d="M223.22,214.54,222,216l-.32-.32,1.48-1.25Z" transform="translate(-25.27 -18.45)"/><path class="cls-29" d="M244.17,218.46c-1.69-4.73,3.58-4.53,5-7.06l3.08-1.73L273,208.3c.7,1.1,1.34,2.24,2.12,3.28.94,1.24,2,2.39,3,3.59a23.39,23.39,0,0,0,3.31-3.37c.6-.88.54-2.2.78-3.32l7.9,2.1,6.26,3.94c.07.69.15,1.37.22,2.06l-2.23,4c-4.36-1.31-8.68-2.79-13.1-3.8-1.23-.29-2.78.82-4.18,1.3-1.46-.31-2.95-.52-4.37-.94-4-1.2-5.67.32-5.41,4.36a22.89,22.89,0,0,1-.16,3l-3,1,.06-5c3.49-1.39,1.9-3.8,1.22-6l-4.29-.3-1.94.29Z" transform="translate(-25.27 -18.45)"/><path class="cls-15" d="M282.22,208.48c-.24,1.12-.18,2.44-.78,3.32a23.39,23.39,0,0,1-3.31,3.37c-1-1.2-2.07-2.35-3-3.59-.78-1-1.42-2.18-2.12-3.28l8.15-1.7C281.5,207.23,281.86,207.85,282.22,208.48Z" transform="translate(-25.27 -18.45)"/><path class="cls-3" d="M267.15,224.51a22.89,22.89,0,0,0,.16-3c-.26-4,1.42-5.56,5.41-4.36,1.42.42,2.91.63,4.37.94.76,1.22,2.11,2.41,2.17,3.66.2,3.87-.09,7.77-.19,11.66a2.81,2.81,0,0,0-.82,0c-3.56-.19-7.18-2.63-10.38,1.86-1.18,1.66-4.44.58-4.44-2.84,0-.12.12-.25.09-.35a5.11,5.11,0,0,0-.27-.64l-.06,0C268.85,231.64,267.19,227.62,267.15,224.51Z" transform="translate(-25.27 -18.45)"/><path class="cls-18" d="M259.24,259.59c0-7.46-.1-14.93,0-22.39a33.06,33.06,0,0,1,.89-5.23l1.17-.16-.15,27.84Z" transform="translate(-25.27 -18.45)"/><path class="cls-22" d="M261.28,231.81l-1.17.16q.34-6.19.68-12.4c1.65-1.58,3-2,3.43.93l-.06,5c-.32,2-.65,4-1,6l.06,0-1.05,0A1.43,1.43,0,0,0,261.28,231.81Z" transform="translate(-25.27 -18.45)"/><path class="cls-28" d="M278.25,233.48a2.81,2.81,0,0,1,.82,0q.31,13.37.64,26.72c-.67-1.55-1.91-3.1-1.91-4.65C277.76,248.16,278.07,240.82,278.25,233.48Z" transform="translate(-25.27 -18.45)"/><path class="cls-23" d="M262.2,231.53l1.05,0a5.11,5.11,0,0,1,.27.64c0,.1-.06.23-.09.35Z" transform="translate(-25.27 -18.45)"/><path class="cls-21" d="M252.19,262.19l1-.76Z" transform="translate(-25.27 -18.45)"/><path class="cls-3" d="M261.15,214.18l4.29.3-6.91,5.06c-.78,7.55-4.36,12.14-12.54,12.16-1.61,0-3.21.76-4.82,1.16l-3.93.83-4.07.9-2.94-.16,6.21-13.52,7.73-2.45,15-4Z" transform="translate(-25.27 -18.45)"/><path class="cls-22" d="M247.71,250.66H252c-5.38,4.25-8.58,10.59-16.67,8.77,2.49-3.89,5-7.48,10-8.15Z" transform="translate(-25.27 -18.45)"/><path class="cls-23" d="M212.16,256.47l4-.92,1-.09,3.89-.15.09,2.19-9,1.74C212.15,258.32,212.15,257.39,212.16,256.47Z" transform="translate(-25.27 -18.45)"/><path class="cls-23" d="M258.53,219.54l6.91-5.06c.68,2.22,2.27,4.63-1.22,6-.44-2.91-1.78-2.51-3.43-.93Z" transform="translate(-25.27 -18.45)"/><path class="cls-20" d="M237.24,233.69l3.93-.83Z" transform="translate(-25.27 -18.45)"/><path class="cls-21" d="M247.71,250.66l-2.47.62Z" transform="translate(-25.27 -18.45)"/><path class="cls-29" d="M212.16,256.47c0,.92,0,1.85,0,2.77l-1.93.42c-.35-1.34-.69-2.68-1-4l1.08-.56Z" transform="translate(-25.27 -18.45)"/><path class="cls-29" d="M217.19,255.46l-1,.09Z" transform="translate(-25.27 -18.45)"/><path class="cls-23" d="M263.19,231.55c.32-2,.65-4,1-6l3-1C267.19,227.62,268.85,231.64,263.19,231.55Z" transform="translate(-25.27 -18.45)"/><path class="cls-23" d="M261.15,214.18l-1.94.29Z" transform="translate(-25.27 -18.45)"/></svg>