<svg id="graphics" xmlns="http://www.w3.org/2000/svg" xmlns:xlink="http://www.w3.org/1999/xlink" viewBox="0 0 309.03 297.03"><defs><style>.cls-1{fill:#c6c6c6;}.cls-2{fill:url(#linear-gradient);}.cls-3{fill:url(#linear-gradient-2);}.cls-4{fill:url(#linear-gradient-3);}.cls-5{fill:url(#linear-gradient-4);}.cls-6{fill:url(#linear-gradient-5);}.cls-7{fill:#7d8789;}.cls-8{fill:url(#radial-gradient);}.cls-9{fill:url(#linear-gradient-6);}</style><linearGradient id="linear-gradient" x1="105.04" y1="206.26" x2="361.04" y2="282.93" gradientUnits="userSpaceOnUse"><stop offset="0.22" stop-color="#10d6f9"/><stop offset="0.43" stop-color="#10d6f9"/><stop offset="0.49" stop-color="#11d0f4"/><stop offset="0.58" stop-color="#13bee8"/><stop offset="0.68" stop-color="#17a2d2"/><stop offset="0.79" stop-color="#1d7bb6"/><stop offset="1" stop-color="#0d3375"/></linearGradient><linearGradient id="linear-gradient-2" x1="108.61" y1="194.32" x2="364.61" y2="270.99" xlink:href="#linear-gradient"/><linearGradient id="linear-gradient-3" x1="108.9" y1="193.36" x2="364.9" y2="270.02" xlink:href="#linear-gradient"/><linearGradient id="linear-gradient-4" x1="110.24" y1="188.87" x2="366.24" y2="265.54" xlink:href="#linear-gradient"/><linearGradient id="linear-gradient-5" x1="115.15" y1="172.48" x2="371.15" y2="249.14" xlink:href="#linear-gradient"/><radialGradient id="radial-gradient" cx="182.28" cy="95.1" r="129.44" gradientTransform="matrix(1, -0.02, 0.02, 1, -2.13, 1.85)" gradientUnits="userSpaceOnUse"><stop offset="0" stop-color="#8d8d8d"/><stop offset="0.15" stop-color="#a7a7a7"/><stop offset="0.39" stop-color="#c7c7c7"/><stop offset="0.61" stop-color="#dfdfdf"/><stop offset="0.82" stop-color="#ededed"/><stop offset="1" stop-color="#f2f2f2"/></radialGradient><linearGradient id="linear-gradient-6" x1="11.35" y1="64.65" x2="246.95" y2="147.49" gradientTransform="matrix(1, -0.02, 0.02, 1, -2.13, 1.85)" xlink:href="#linear-gradient"/></defs><path class="cls-1" d="M25.61,197.61v10.93A11.51,11.51,0,0,1,30,204.31a12.22,12.22,0,0,1,6-1.37,12.74,12.74,0,0,1,10.53,5.33q4.09,5.32,4.1,13.81t-4.1,13.8A11.43,11.43,0,0,1,41,239.64a21.81,21.81,0,0,1-6.9,1.16,23,23,0,0,1-12.17-3.41q-5.61-3.42-5.6-13.13V193H21a4.66,4.66,0,0,1,4.64,4.65ZM41.2,221.67c0-3.28-.69-5.83-2.05-7.66a6.54,6.54,0,0,0-5.61-2.87,6.92,6.92,0,0,0-5.88,2.73,13.26,13.26,0,0,0-2.05,7.8c0,3.82.64,6.61,1.92,8.33a6.63,6.63,0,0,0,5.74,2.87A6.78,6.78,0,0,0,39.15,230C40.51,228.09,41.2,225.31,41.2,221.67Z"/><path class="cls-1" d="M54.49,193.1h4.92a4.66,4.66,0,0,1,4.65,4.65v2.87H54.49Zm0,10.66h4.92a4.68,4.68,0,0,1,4.65,4.65v31.71H54.49Z"/><path class="cls-1" d="M68.87,240.12V222.49a22.5,22.5,0,0,1,1.57-9,14.82,14.82,0,0,1,4.3-5.81,17,17,0,0,1,6.09-3,26.84,26.84,0,0,1,7.17-1h1.37v9.7H86.23q-4,0-5.88,1.92t-1.92,6v18.73Z"/><path class="cls-1" d="M115.78,193h4.65a4.35,4.35,0,0,1,3.28,1.44,4.55,4.55,0,0,1,1.37,3.21v26.65q0,9.72-5.61,13.13a23,23,0,0,1-12.16,3.41,21.64,21.64,0,0,1-7-1.16,11.41,11.41,0,0,1-5.47-3.76q-4-5.06-4-13.8t4-13.81a13.32,13.32,0,0,1,16.54-4,12.92,12.92,0,0,1,4.37,4.23ZM100.2,221.67q0,5.46,2,8.33a6.78,6.78,0,0,0,5.88,2.87,6.64,6.64,0,0,0,5.74-2.87c1.28-1.91,1.91-4.69,1.91-8.33a13.19,13.19,0,0,0-2-7.8,7.12,7.12,0,0,0-5.87-2.73,6.54,6.54,0,0,0-5.61,2.87Q100.2,216.76,100.2,221.67Z"/><path class="cls-2" d="M167.56,240.12H158l-5.6-26-5.61,26h-9.56l-10-36.36h9.29l5.74,25.15,5.2-25.15h9.7l4.92,25.15L167.15,207a4,4,0,0,1,4.38-3.28h6Z"/><path class="cls-3" d="M180.22,193.1h4.92a4.66,4.66,0,0,1,4.65,4.65v2.87h-9.57Zm0,10.66h4.92a4.68,4.68,0,0,1,4.65,4.65v31.71h-9.57Z"/><path class="cls-4" d="M225.31,240.12h-4.78a4.45,4.45,0,0,1-4.65-4.65V216.88a5.62,5.62,0,0,0-2-4.78,7.22,7.22,0,0,0-4.44-1.51,6.93,6.93,0,0,0-4.38,1.51c-1.28,1-1.91,2.6-1.91,4.78v23.24H193.6V218.8q0-9.3,4.85-12.44a21.12,21.12,0,0,1,10.73-3.42,20.61,20.61,0,0,1,11.07,3.14q5.06,3.15,5.06,12.72Z"/><path class="cls-5" d="M253.27,237.93v-2.32a10.43,10.43,0,0,1-6.63,4.78,13.61,13.61,0,0,1-8.27-.68,15.36,15.36,0,0,1-7-6.08q-2.94-4.44-2.93-11.69,0-8.48,3.89-13.74t12.51-5.26A22.25,22.25,0,0,1,257,206.49q5.61,3.57,5.61,13.13v19.27q0,9.57-5.61,13.05a22.53,22.53,0,0,1-12.16,3.49q-12.59,0-15.58-11.76h10a7.63,7.63,0,0,0,7.86,3.49,7.44,7.44,0,0,0,4.11-2.67C252.38,243,253.09,240.85,253.27,237.93Zm-15.58-15.72q0,9.43,5.47,10.46t8.06-2.53a10.23,10.23,0,0,0,1.78-4.71,20,20,0,0,0,.07-6.36,12.8,12.8,0,0,0-2.26-5.61,6,6,0,0,0-5.19-2.46c-3.1,0-5.2,1.15-6.29,3.42A17.86,17.86,0,0,0,237.69,222.21Z"/><path class="cls-6" d="M264.79,228.09h9.29a5.05,5.05,0,0,0,2.05,4.1,9.74,9.74,0,0,0,5.47,1.37,8.82,8.82,0,0,0,4.24-1,2.9,2.9,0,0,0,1.64-2.6q0-2.46-5.74-3.69a24.78,24.78,0,0,1-3.69-.82q-7.24-1.77-9.71-4.23a8.4,8.4,0,0,1-2.73-6.56,10.9,10.9,0,0,1,4-8.62q4.11-3.14,10.66-3.14,7.11,0,11.35,3.14a12.07,12.07,0,0,1,4.24,8.89h-5.88a4.34,4.34,0,0,1-4-2.32l-1.1-1.1a7.36,7.36,0,0,0-4.51-1.23,8.1,8.1,0,0,0-4.1.82A2.77,2.77,0,0,0,275,213.6q0,2.19,7.11,3.69a12.17,12.17,0,0,0,1.43.41,5.47,5.47,0,0,0,1.16.14q7,1.77,9.71,4.1a8.62,8.62,0,0,1,2.6,6.56,10.94,10.94,0,0,1-4.38,9.3q-4.1,3-12.3,3-7.78,0-11.62-3.14t-4-9.16Z"/><path class="cls-7" d="M77.21,260.47a3.42,3.42,0,0,0-2.45-.82,4,4,0,0,0-2,.47,4.36,4.36,0,0,0-1.41,1.25,5.64,5.64,0,0,0-.85,1.76,7.15,7.15,0,0,0,0,4,5.43,5.43,0,0,0,.85,1.76,4.14,4.14,0,0,0,1.41,1.25,3.94,3.94,0,0,0,2,.48,3.37,3.37,0,0,0,1.38-.28,3.72,3.72,0,0,0,1.15-.76,4.05,4.05,0,0,0,.82-1.16,4.27,4.27,0,0,0,.4-1.48h1.58a5.91,5.91,0,0,1-1.73,3.66,5,5,0,0,1-3.6,1.32,6,6,0,0,1-2.61-.54A5.66,5.66,0,0,1,70.24,270a6.41,6.41,0,0,1-1.18-2.17,8.88,8.88,0,0,1,0-5.27,6.27,6.27,0,0,1,1.18-2.16,5.71,5.71,0,0,1,1.91-1.48,5.89,5.89,0,0,1,2.61-.55,5.64,5.64,0,0,1,3.52,1.1A4.76,4.76,0,0,1,80,262.75H78.41A4.25,4.25,0,0,0,77.21,260.47Z"/><path class="cls-7" d="M83.74,258.7v3h.05a4.91,4.91,0,0,1,1.86-2.42,4.86,4.86,0,0,1,3-.78v1.58a4.76,4.76,0,0,0-2,.28,4.39,4.39,0,0,0-2.5,2.45,5.08,5.08,0,0,0-.35,1.89v6.88H82.29V258.7Z"/><path class="cls-7" d="M90.88,267.33a4.66,4.66,0,0,0,.76,1.64,4.34,4.34,0,0,0,1.32,1.2,3.71,3.71,0,0,0,1.93.48,3.83,3.83,0,0,0,2.7-.9,4.73,4.73,0,0,0,1.35-2.4h1.57a6.3,6.3,0,0,1-1.83,3.4,5.51,5.51,0,0,1-3.79,1.2,6,6,0,0,1-2.64-.54,4.87,4.87,0,0,1-1.81-1.48,6.43,6.43,0,0,1-1-2.17,10.15,10.15,0,0,1-.34-2.61,9.54,9.54,0,0,1,.34-2.5,6.72,6.72,0,0,1,1-2.19,5.25,5.25,0,0,1,1.81-1.55,5.59,5.59,0,0,1,2.64-.59,5.15,5.15,0,0,1,4.44,2.26,7,7,0,0,1,1,2.33,9.89,9.89,0,0,1,.25,2.66H90.64A6.83,6.83,0,0,0,90.88,267.33Zm7.8-4.81a4.84,4.84,0,0,0-.82-1.46,4,4,0,0,0-1.27-1,3.76,3.76,0,0,0-1.7-.38,3.83,3.83,0,0,0-1.73.38,4,4,0,0,0-1.27,1,5.17,5.17,0,0,0-.84,1.47,6.85,6.85,0,0,0-.41,1.72H99A5.88,5.88,0,0,0,98.68,262.52Z"/><path class="cls-7" d="M103,260.7a3.72,3.72,0,0,1,1.09-1.35,4.73,4.73,0,0,1,1.61-.78,8.16,8.16,0,0,1,2.05-.25,9.69,9.69,0,0,1,1.7.16,4.15,4.15,0,0,1,1.53.62,3.4,3.4,0,0,1,1.1,1.26,4.6,4.6,0,0,1,.42,2.11v6.85a.83.83,0,0,0,.93.95,1.18,1.18,0,0,0,.5-.1v1.33l-.49.07a4,4,0,0,1-.54,0,2.33,2.33,0,0,1-1-.17,1.22,1.22,0,0,1-.56-.46,1.77,1.77,0,0,1-.26-.71,5.17,5.17,0,0,1-.07-.91h0a11.55,11.55,0,0,1-.86,1.11,4.35,4.35,0,0,1-1,.81,4.23,4.23,0,0,1-1.23.5,6.52,6.52,0,0,1-1.64.18,6,6,0,0,1-1.68-.22,3.7,3.7,0,0,1-1.38-.67,3.17,3.17,0,0,1-.92-1.18,3.79,3.79,0,0,1-.34-1.68,3.36,3.36,0,0,1,.6-2.12,3.87,3.87,0,0,1,1.59-1.16,9.36,9.36,0,0,1,2.22-.56l2.51-.31c.34,0,.63-.08.88-.13a1.53,1.53,0,0,0,.62-.26,1.25,1.25,0,0,0,.39-.51,2.25,2.25,0,0,0,.14-.85,3,3,0,0,0-.26-1.32,2.12,2.12,0,0,0-.73-.81,2.88,2.88,0,0,0-1.07-.41,6.91,6.91,0,0,0-1.32-.11,4,4,0,0,0-2.45.71,2.82,2.82,0,0,0-1,2.29h-1.57A5.37,5.37,0,0,1,103,260.7Zm7.88,3.85a.93.93,0,0,1-.58.4,5.53,5.53,0,0,1-.75.17c-.66.12-1.35.22-2.06.31a11.59,11.59,0,0,0-1.94.42,3.71,3.71,0,0,0-1.43.78,1.88,1.88,0,0,0-.57,1.47,2.27,2.27,0,0,0,.24,1.06,2.6,2.6,0,0,0,.64.8,2.76,2.76,0,0,0,.92.51,3.31,3.31,0,0,0,1.08.18,5.21,5.21,0,0,0,1.72-.28,4.22,4.22,0,0,0,1.44-.8,4,4,0,0,0,1-1.27,3.89,3.89,0,0,0,.36-1.7v-2.05Z"/><path class="cls-7" d="M120.79,258.7V260h-2.63v8.7a2.67,2.67,0,0,0,.22,1.21c.14.3.49.46,1.06.49a12.21,12.21,0,0,0,1.35-.07v1.32c-.24,0-.47,0-.7,0l-.7,0a3.1,3.1,0,0,1-2.2-.61,3.05,3.05,0,0,1-.6-2.26V260h-2.25V258.7h2.25v-3.88h1.57v3.88Z"/><path class="cls-7" d="M124.66,253.75v2.52h-1.57v-2.52Zm0,4.95v12.9h-1.57V258.7Z"/><path class="cls-7" d="M128,258.7,132,270h.05l4-11.32h1.62l-4.82,12.9h-1.68l-5-12.9Z"/><path class="cls-7" d="M140.43,267.33a4.66,4.66,0,0,0,.76,1.64,4.34,4.34,0,0,0,1.32,1.2,3.71,3.71,0,0,0,1.93.48,3.83,3.83,0,0,0,2.7-.9,4.73,4.73,0,0,0,1.35-2.4h1.57a6.3,6.3,0,0,1-1.83,3.4,5.51,5.51,0,0,1-3.79,1.2,6,6,0,0,1-2.64-.54,4.79,4.79,0,0,1-1.81-1.48,6.43,6.43,0,0,1-1-2.17,10.15,10.15,0,0,1-.34-2.61,9.54,9.54,0,0,1,.34-2.5,6.72,6.72,0,0,1,1-2.19,5.16,5.16,0,0,1,1.81-1.55,5.59,5.59,0,0,1,2.64-.59,5.15,5.15,0,0,1,4.44,2.26,7,7,0,0,1,1,2.33,9.89,9.89,0,0,1,.25,2.66h-9.92A6.83,6.83,0,0,0,140.43,267.33Zm7.8-4.81a4.84,4.84,0,0,0-.82-1.46,4,4,0,0,0-1.27-1,3.76,3.76,0,0,0-1.7-.38,3.83,3.83,0,0,0-1.73.38,4,4,0,0,0-1.27,1,5.17,5.17,0,0,0-.84,1.47,6.85,6.85,0,0,0-.41,1.72h8.35A5.88,5.88,0,0,0,148.23,262.52Z"/><path class="cls-7" d="M169.09,271.6v-2.45H169a4,4,0,0,1-.74,1.15,5,5,0,0,1-1.11.88,5.69,5.69,0,0,1-1.34.57,5.39,5.39,0,0,1-1.41.2,5.73,5.73,0,0,1-2.57-.54,5.2,5.2,0,0,1-1.81-1.48,6.3,6.3,0,0,1-1.07-2.17,9.94,9.94,0,0,1,0-5.23,6.3,6.3,0,0,1,1.07-2.17,5.35,5.35,0,0,1,1.81-1.49,6,6,0,0,1,4-.37,4.56,4.56,0,0,1,1.29.53,4.77,4.77,0,0,1,1.06.89,3.58,3.58,0,0,1,.71,1.23H169v-7.4h1.58V271.6Zm-8.64-4.47a5.63,5.63,0,0,0,.75,1.77,4.26,4.26,0,0,0,1.31,1.26,3.71,3.71,0,0,0,1.93.49,4.3,4.3,0,0,0,2.11-.49,4.36,4.36,0,0,0,1.4-1.26,5,5,0,0,0,.77-1.77,8.33,8.33,0,0,0,0-4,4.92,4.92,0,0,0-.77-1.76,4,4,0,0,0-3.51-1.75,3.71,3.71,0,0,0-1.93.48,4.18,4.18,0,0,0-1.31,1.27,5.48,5.48,0,0,0-.75,1.76,8.33,8.33,0,0,0,0,4Z"/><path class="cls-7" d="M174.7,267.33a4.84,4.84,0,0,0,.76,1.64,4.27,4.27,0,0,0,1.33,1.2,3.65,3.65,0,0,0,1.92.48,3.83,3.83,0,0,0,2.7-.9,4.73,4.73,0,0,0,1.35-2.4h1.58a6.37,6.37,0,0,1-1.84,3.4,5.47,5.47,0,0,1-3.79,1.2,6,6,0,0,1-2.64-.54,4.87,4.87,0,0,1-1.81-1.48,6.43,6.43,0,0,1-1-2.17,10.15,10.15,0,0,1-.33-2.61,9.53,9.53,0,0,1,.33-2.5,6.72,6.72,0,0,1,1-2.19,5.25,5.25,0,0,1,1.81-1.55,5.65,5.65,0,0,1,2.64-.59,5.15,5.15,0,0,1,4.44,2.26,6.78,6.78,0,0,1,1,2.33,10.31,10.31,0,0,1,.25,2.66h-9.93A6.83,6.83,0,0,0,174.7,267.33Zm7.8-4.81a4.61,4.61,0,0,0-.81-1.46,4,4,0,0,0-1.28-1,3.73,3.73,0,0,0-1.7-.38A3.79,3.79,0,0,0,177,260a4,4,0,0,0-1.28,1,5.17,5.17,0,0,0-.84,1.47,7.84,7.84,0,0,0-.41,1.72h8.35A5.88,5.88,0,0,0,182.5,262.52Z"/><path class="cls-7" d="M193.94,261.21a2.67,2.67,0,0,0-.74-.89,3.16,3.16,0,0,0-1.06-.51,5.18,5.18,0,0,0-2.34-.05,3.27,3.27,0,0,0-1,.37,2.16,2.16,0,0,0-.72.69,1.85,1.85,0,0,0-.28,1.05,1.45,1.45,0,0,0,.27.89,2.28,2.28,0,0,0,.66.61,3.66,3.66,0,0,0,.87.41c.32.11.61.2.88.27l2.1.47a6.66,6.66,0,0,1,1.34.36,4.52,4.52,0,0,1,1.17.69,3.48,3.48,0,0,1,.84,1.05,3.26,3.26,0,0,1,.32,1.48,3.17,3.17,0,0,1-.47,1.78,3.75,3.75,0,0,1-1.21,1.2,5.37,5.37,0,0,1-1.67.67,8.74,8.74,0,0,1-1.82.2,5.9,5.9,0,0,1-3.69-1.08,4.56,4.56,0,0,1-1.61-3.45h1.57a3.11,3.11,0,0,0,1.17,2.41,4.13,4.13,0,0,0,2.63.82,5.49,5.49,0,0,0,1.19-.13,3.71,3.71,0,0,0,1.14-.42,2.77,2.77,0,0,0,.86-.77,2.06,2.06,0,0,0,.1-2.1,2.2,2.2,0,0,0-.64-.65,3.83,3.83,0,0,0-.91-.43,9.49,9.49,0,0,0-1-.3l-2-.45a12,12,0,0,1-1.43-.47,4.28,4.28,0,0,1-1.13-.65,2.65,2.65,0,0,1-.77-.95,3.14,3.14,0,0,1-.27-1.38,3.05,3.05,0,0,1,.44-1.68,3.46,3.46,0,0,1,1.13-1.12,5.38,5.38,0,0,1,1.56-.63,7.83,7.83,0,0,1,1.72-.2,6.54,6.54,0,0,1,1.81.25,4.15,4.15,0,0,1,1.47.78,3.74,3.74,0,0,1,1,1.3,4.56,4.56,0,0,1,.42,1.82h-1.57A3.08,3.08,0,0,0,193.94,261.21Z"/><path class="cls-7" d="M200.14,253.75v2.52h-1.58v-2.52Zm0,4.95v12.9h-1.58V258.7Z"/><path class="cls-7" d="M213.75,273.12a5,5,0,0,1-1,1.95A4.44,4.44,0,0,1,211,276.3a7.39,7.39,0,0,1-2.66.42,8,8,0,0,1-1.9-.22,5.5,5.5,0,0,1-1.66-.7,4.09,4.09,0,0,1-1.23-1.22,3.56,3.56,0,0,1-.56-1.76h1.57a2.88,2.88,0,0,0,.49,1.21,2.77,2.77,0,0,0,.88.79,3.86,3.86,0,0,0,1.13.44,6,6,0,0,0,1.28.14,3.79,3.79,0,0,0,3.17-1.25,5.78,5.78,0,0,0,1-3.6V268.8h-.05a4.6,4.6,0,0,1-1.62,1.92,4.29,4.29,0,0,1-2.48.73,6.08,6.08,0,0,1-2.65-.52,4.91,4.91,0,0,1-1.82-1.41,5.7,5.7,0,0,1-1-2.11,9.83,9.83,0,0,1-.33-2.59,8,8,0,0,1,.39-2.51,6.25,6.25,0,0,1,1.13-2.08,5.28,5.28,0,0,1,1.82-1.4,5.77,5.77,0,0,1,2.49-.51,4.4,4.4,0,0,1,2.52.76,5.42,5.42,0,0,1,.94.84,4,4,0,0,1,.64,1h.05V258.7h1.57v11.85A9.73,9.73,0,0,1,213.75,273.12Zm-3.61-3.44a4.09,4.09,0,0,0,1.3-1.15,4.93,4.93,0,0,0,.78-1.63,6.76,6.76,0,0,0,.27-1.9,8.16,8.16,0,0,0-.23-1.9,5.55,5.55,0,0,0-.72-1.73,4.05,4.05,0,0,0-1.29-1.25,3.7,3.7,0,0,0-1.91-.47,3.8,3.8,0,0,0-1.93.46,4.13,4.13,0,0,0-1.32,1.21,5.12,5.12,0,0,0-.77,1.71,8.69,8.69,0,0,0-.23,2,7.13,7.13,0,0,0,.25,1.9,4.72,4.72,0,0,0,.77,1.63,3.9,3.9,0,0,0,1.33,1.15,3.79,3.79,0,0,0,1.9.44A3.53,3.53,0,0,0,210.14,269.68Z"/><path class="cls-7" d="M218.61,258.7v2.22h0a3.85,3.85,0,0,1,1.6-1.89,4.76,4.76,0,0,1,2.53-.71,6.43,6.43,0,0,1,2.26.35,3.54,3.54,0,0,1,1.46,1,3.65,3.65,0,0,1,.78,1.56,8.85,8.85,0,0,1,.22,2.08v8.3h-1.57v-8.05a7.45,7.45,0,0,0-.15-1.54,3.24,3.24,0,0,0-.53-1.24,2.5,2.5,0,0,0-1-.82,3.7,3.7,0,0,0-1.59-.3A4.14,4.14,0,0,0,221,260a3.86,3.86,0,0,0-1.25.93,4.25,4.25,0,0,0-.79,1.4,5.55,5.55,0,0,0-.32,1.76v7.53H217V258.7Z"/><path class="cls-8" d="M263.06,30.22C229.69,7,171.16,16.53,146,74.58c-13.8,31.79-17.74,80.62-77,96.6,16.34-.14,105.92,9.49,137.68-42.45C228.77,92.57,208.8,32.72,263.06,30.22Z"/><path class="cls-9" d="M12.3,85.83c53.83-77,163.14-83.72,192.77-15,28,64.87-27.4,115.5-136.09,100.33,46.29-2.33,93.41-25.65,78.17-70.78C134,61.59,76.54,49.63,12.3,85.83Z"/></svg>